<?xml version="1.0" standalone="no"?>
<!DOCTYPE svg PUBLIC "-//W3C//DTD SVG 1.1//EN" "http://www.w3.org/Graphics/SVG/1.1/DTD/svg11.dtd" >
<svg xmlns="http://www.w3.org/2000/svg">
<metadata></metadata>
<defs>
<font id="night_still_comesregular" horiz-adv-x="612" >
<font-face units-per-em="2048" ascent="1536" descent="-512" />
<missing-glyph horiz-adv-x="512" />
<glyph unicode="&#xfb01;" horiz-adv-x="1064" d="M72 0v31h94q43 0 43 80v843h-137v31h137q0 546 369 549q78 0 141 -25.5t102.5 -69t62.5 -95.5t29 -111q0 -34 -18 -59.5t-49 -26.5q-32 -1 -51 21t-19 53q0 50 -11 98t-33.5 90.5t-62.5 69t-91 26.5q-106 0 -173 -126.5t-67 -393.5h461q59 0 83.5 -19t24.5 -73v-782 q0 -80 39 -80h58v-31h-326v31h51q43 0 43 80v843h-434v-843q0 -1 1 -12.5t1.5 -17.5t3.5 -17t7.5 -17t12.5 -11t19 -5h94v-31h-405z" />
<glyph unicode="&#xfb02;" horiz-adv-x="1013" d="M72 950v35h127q0 99 8 175t31 149t61.5 120.5t103 76t152.5 28.5h68q14 0 47 0.5t46 0.5t38.5 -2t36 -7t27 -14t23 -22.5t12 -33.5t5.5 -47v-1300q0 -18 0.5 -25.5t3.5 -23t11 -22.5t22 -7h57v-31h-323v31h63q6 0 11.5 1.5t9 5t6 7t4 10t2.5 10t1.5 11.5t0.5 11v12v10 v841h-401v-848q0 -16 0.5 -24t3.5 -21.5t11 -19.5t21 -6h58v-31h-332v31h64q47 0 47 75v844h-127zM324 1114q0 -14 2 -129h401v395q0 56 -37.5 87.5t-132.5 31.5q-41 0 -76 -17.5t-60 -46.5t-44 -66.5t-30.5 -81.5t-17 -87t-5.5 -86z" />
<glyph horiz-adv-x="0" />
<glyph horiz-adv-x="682" />
<glyph unicode=" "  horiz-adv-x="512" />
<glyph unicode="&#x09;" horiz-adv-x="512" />
<glyph unicode="&#xa0;" horiz-adv-x="512" />
<glyph unicode="!" horiz-adv-x="419" d="M106 94q0 41 30 70t69 29q37 0 63.5 -29t26.5 -70t-26.5 -68.5t-63.5 -27.5q-39 0 -69 28t-30 68zM139 1464q-1 30 21.5 52t52.5 22t51.5 -22t20.5 -52l-43 -1087q0 -11 -9.5 -21t-25.5 -10t-25.5 9t-9.5 22z" />
<glyph unicode="&#x22;" horiz-adv-x="768" d="M123 1432q0 40 30.5 71t71.5 31q42 0 72.5 -31.5t24.5 -70.5l-52 -287q-6 -47 -47 -47q-39 0 -45 47zM444 1432q0 40 31 71t72 31q42 0 72 -31.5t24 -70.5l-51 -287q-6 -47 -47 -47q-39 0 -45 47z" />
<glyph unicode="#" horiz-adv-x="1558" d="M20 410l13 53h411l76 358h-411l10 49h411l86 408h68l-86 -408h420l86 408h70l-87 -408h410l-10 -49h-410l-76 -358h410l-12 -53h-410l-86 -410h-69l86 410h-420l-86 -410h-68l86 410h-412zM512 463h420l76 358h-420z" />
<glyph unicode="$" horiz-adv-x="1187" d="M104 410q0 49 27 82t70 30q48 -3 64.5 -41.5t10.5 -81.5q-8 -41 -5.5 -84.5t10 -84.5t31.5 -78t59 -66t92 -48t131 -24v658q-240 62 -344.5 162t-102.5 237q1 73 31.5 140.5t85.5 121t141.5 85.5t190.5 32v92h41v-94q143 -8 229.5 -69.5t114.5 -137.5v191h70v-373 q0 -30 -15.5 -54t-54.5 -24q-36 0 -52 22.5t-16 55.5q-1 53 -6 91.5t-21.5 87.5t-44.5 81.5t-80 58.5t-124 33l-2 -580q244 -62 347 -175.5t101 -284.5q-1 -76 -30.5 -145t-84.5 -124t-141 -88.5t-192 -36.5v-182h-41v182q-132 5 -243 59t-179 152.5t-68 221.5zM240 1122 q3 -87 88.5 -160t265.5 -120l2 571q-160 3 -260.5 -86t-95.5 -205zM635 14q104 1 186.5 50.5t124.5 123t43 154.5q1 48 -14.5 90t-53 85t-110 80.5t-176.5 64.5v-648z" />
<glyph unicode="%" horiz-adv-x="1157" d="M63 1105.5q-6 42.5 9.5 106.5t58.5 138q16 26 36.5 52.5t60 62t81 54.5t98.5 17t113 -37q44 -27 68.5 -56.5t30 -48.5t9 -45.5t7.5 -37.5q45 -136 239 58q65 64 140 161h69l-954 -1536h-51l842 1364q-62 -66 -110.5 -101t-82 -38.5t-56 9t-42.5 40.5q-20 -87 -59 -157.5 t-86.5 -113.5t-100 -66t-104.5 -20t-95 29q-26 14 -48.5 32.5t-44.5 54.5t-28 78.5zM111.5 1080q1.5 -22 11.5 -39t29 -36.5t47 -37.5q37 -21 71.5 -23t58 8t48 34.5t37.5 42.5t30 46q18 31 34.5 58.5t35.5 58.5q16 26 25 42.5t22.5 46t15 52.5t-1.5 50t-22 50.5t-51 43.5 q-79 46 -138.5 22.5t-123.5 -129.5q-13 -21 -38.5 -64t-29.5 -49q-17 -31 -26.5 -49.5t-20.5 -44.5t-13 -43.5t-0.5 -39.5zM528.5 297.5q14.5 69.5 63.5 148.5q40 64 85.5 105.5t86 57.5t82.5 17t75 -10t64 -30q40 -25 66.5 -60t39 -84.5t-4.5 -117.5t-66 -146 q-51 -81 -105.5 -126t-105 -52t-90 2t-78.5 33q-38 24 -66 58.5t-44.5 84.5t-2 119.5zM572 173q3 -11 7.5 -28t15 -29.5t26.5 -27t38 -29.5q37 -22 71.5 -23t56.5 8.5t48 37t36.5 43t29.5 47.5q50 77 74 117q51 80 62 120q25 93 -68 152q-79 45 -137.5 21t-124.5 -129 q-62 -99 -72 -113q-15 -27 -21 -38.5t-17.5 -34.5t-14.5 -33.5t-8 -30t-2 -30.5z" />
<glyph unicode="&#x26;" horiz-adv-x="1140" d="M61 371q0 119 78.5 242t218.5 212q-176 207 -176 363q0 110 82 181t207 73q112 0 193 -71.5t81 -182.5q0 -43 -16.5 -82.5t-50 -76.5t-59.5 -60.5t-71.5 -58.5t-58.5 -46l414 -549q39 65 58 199q0 61 -54 61h-53v39h246v-39h-53q-43 -7 -43 -61q-25 -173 -66 -244 q59 -94 59 -200q0 -101 -60 -168.5t-149 -67.5q-55 0 -105 21t-50 65q0 21 13 35t34 14q33 0 87.5 -32.5t88.5 -32.5q62 0 62 71q0 41 -20 95.5t-50 93.5q-162 -176 -365 -176q-116 0 -212 48t-153 136t-57 199zM197 426q0 -92 37 -176t108 -138.5t158 -54.5q55 0 98.5 10 t86 36.5t63.5 43.5t69 60l-418 567q-91 -67 -146.5 -157.5t-55.5 -190.5zM311 1188q0 -63 35.5 -126.5t106.5 -150.5q8 9 39 41t39.5 41.5t31 36t29.5 40t19 35.5t16 42t4 41q0 50 -17.5 97.5t-55 81.5t-85.5 34q-68 0 -115 -57.5t-47 -155.5z" />
<glyph unicode="'" horiz-adv-x="446" d="M123 1436q0 40 30.5 71t71.5 31q42 0 72.5 -31.5t24.5 -70.5l-52 -281q-5 -39 -47 -39q-16 0 -26.5 7t-13 14t-5.5 18z" />
<glyph unicode="(" horiz-adv-x="471" d="M104.5 638q0.5 184 28 350t84.5 311.5t137 238.5l35 -25q-101 -126 -154.5 -370t-52 -504.5t55 -512.5t151.5 -394l-37 -33q-82 106 -139 261t-83 324.5t-25.5 353.5z" />
<glyph unicode=")" horiz-adv-x="471" d="M82 -279q101 126 154.5 370t52 504.5t-55 513t-151.5 394.5l37 33q82 -106 139 -261t83 -324.5t25.5 -353.5t-28 -350t-84.5 -311.5t-137 -238.5z" />
<glyph unicode="*" horiz-adv-x="706" d="M43 1219q0 21 21.5 32.5t44.5 8.5q164 -29 221 -27q-13 30 -33.5 58.5t-53 66.5t-42.5 51q-45 56 -4 80q23 13 39.5 -3.5t25.5 -41.5q43 -121 88 -199q34 42 90 201q8 24 29 38.5t41 4.5q13 -6 16 -20.5t-1.5 -28.5t-12.5 -25q-7 -8 -33 -39t-43.5 -52.5t-36 -48 t-24.5 -40.5q40 -14 198 18q89 13 89 -34q0 -30 -27 -37.5t-57 -1.5q-140 28 -207 30q22 -34 70.5 -97.5t52.5 -68.5q55 -64 8 -92q-25 -15 -44.5 6t-27.5 50q-43 128 -80 188q-20 -34 -48 -113.5t-36 -97.5q-33 -56 -65 -39q-20 10 -21 35.5t13 42.5q17 28 70.5 91t64.5 93 q-28 5 -215 -30q-27 -3 -48.5 7t-21.5 34z" />
<glyph unicode="," horiz-adv-x="440" d="M102 96q0 43 29.5 73t73.5 30q82 0 116 -74q37 -81 -7 -189t-152 -186q-7 6 -11 8q-1 1 -8 10q-2 3 -4 5q49 42 84 117q39 87 1 104q-8 4 -19 4q-44 0 -73.5 28.5t-29.5 69.5z" />
<glyph unicode="-" d="M102 588v53l408 2v-53z" />
<glyph unicode="." horiz-adv-x="393" d="M102 94q0 41 30 70t69 29q37 0 63.5 -29t26.5 -70t-26.5 -68.5t-63.5 -27.5q-39 0 -69 28t-30 68z" />
<glyph unicode="/" horiz-adv-x="1036" d="M41 -37l952 1524h43l-952 -1524h-43z" />
<glyph unicode="0" horiz-adv-x="915" d="M41 487q0 75 15.5 148t48 140.5t79 119t114.5 82.5t148 31q88 0 159 -30.5t116.5 -81t76 -119t43.5 -140.5t13 -150q0 -86 -27 -176.5t-76 -169t-129 -128.5t-176 -50q-99 0 -177.5 44t-127.5 118t-74.5 166.5t-25.5 195.5zM162 487q0 -78 14.5 -157t45.5 -155.5 t89 -124.5t135 -48q278 0 283 485q1 57 -6 117t-26 128t-49.5 119.5t-82.5 86t-119 33.5q-79 -1 -137.5 -47t-89 -121t-44 -153.5t-13.5 -162.5z" />
<glyph unicode="1" horiz-adv-x="530" d="M61 0v35h144v844l-119 -99l-18 25l200 178h56v-948h145v-35h-408z" />
<glyph unicode="2" horiz-adv-x="817" d="M61 0v37q67 28 146 82t158.5 127.5t140.5 171t80 194.5q8 40 8.5 86t-9 95.5t-29.5 89t-58.5 65t-89.5 25.5q-79 0 -132 -58.5t-53 -119.5q0 -48 -40 -59q-35 -10 -59 16q-25 27 -11 71q19 57 66.5 100.5t107 63t127.5 21.5t126.5 -23.5t104 -72t61 -123.5t-3.5 -179 q-16 -76 -57.5 -150t-94 -131t-116 -107.5t-119.5 -83.5t-108 -56h514v80h33v-31.5v-28t-0.5 -23.5t-2 -21.5t-5 -16.5t-8.5 -15t-12 -10t-17 -8t-23 -4t-29 -2z" />
<glyph unicode="3" horiz-adv-x="890" d="M47 -33q15 26 44.5 32t53 -10t23.5 -46q4 -136 73 -212.5t173 -76.5q70 0 125.5 32.5t89.5 87t51.5 121t17.5 138.5q0 80 -21 150.5t-62.5 123.5t-104 72t-145.5 -4q-20 -11 -28.5 0t-12.5 37q122 28 206 142t84 230q0 79 -44.5 130t-135.5 57q-87 4 -138.5 -56.5 t-51.5 -140.5q-1 -33 -37 -47q-37 -15 -61 10q-27 27 -9 90q20 71 102.5 126t194.5 55q71 -1 129 -24t95 -61.5t57 -88t20 -103.5q0 -82 -44.5 -160t-131.5 -131q136 -35 208.5 -143t72.5 -244q0 -83 -28 -160t-80 -139t-134.5 -99.5t-183.5 -37.5q-75 0 -147 26t-126.5 71 t-81.5 111.5t-12 141.5z" />
<glyph unicode="4" horiz-adv-x="978" d="M41 59l582 924h55v-872h205v84h35v-220h-35v84h-205v-311q0 -72 39 -72h135v-41h-487v41h135q41 0 41 72v311h-500zM123 109h418v661z" />
<glyph unicode="5" horiz-adv-x="991" d="M72 -72q0 30 17.5 53t49.5 23q31 0 51 -21t21 -63q4 -145 110 -219q91 -63 207 -43q121 21 190 124q61 90 60 220v211q0 113 -32 191.5t-81.5 112t-110 40t-117.5 -15t-104 -61.5t-69 -91q-37 -77 -55 -96q-37 -40 -107 -17l158 644q21 65 76 65h565v-143h-39v104h-405 q-29 0 -45.5 -9.5t-24.5 -37.5q-12 -47 -39 -186.5t-49 -210.5q98 92 238 92q59 0 114 -18t106 -58t89.5 -98t61 -144.5t22.5 -191.5q0 -94 -26.5 -173t-70.5 -132.5t-102 -91t-119 -55t-123 -17.5q-105 0 -201 40.5t-151 113.5q-26 33 -45.5 77.5t-19.5 81.5z" />
<glyph unicode="6" horiz-adv-x="964" d="M63 528q12 195 144 403.5t323 355t373 179.5l10 -36q-113 -32 -224 -108t-197 -172t-150.5 -201t-95.5 -201q97 90 217 90q75 0 146.5 -35t126.5 -95t87 -146.5t29 -182.5q-2 -75 -34 -149.5t-83.5 -132.5t-124 -94t-149.5 -36q-94 0 -169.5 35t-130 103t-80.5 176 t-18 247zM200 514.5q-8 -118.5 15.5 -230.5t88 -194.5t155.5 -83.5q77 -1 136 59.5t87.5 145.5t30.5 174q4 175 -84 286t-207 111q-98 0 -172 -77q-42 -72 -50 -190.5z" />
<glyph unicode="7" horiz-adv-x="942" d="M63 813v32v29.5t0.5 24.5t2 23t5 18t8 16t11.5 11t16.5 9.5t21.5 4.5t28 2h745v-111q-86 -47 -156 -102.5t-121 -119t-89 -128t-63 -143t-40.5 -150t-23.5 -162.5t-10.5 -166.5t-2.5 -176.5q0 -48 -22.5 -73.5t-59.5 -25.5q-33 0 -52.5 32t-16.5 67q1 108 20 228.5 t65 261.5t113 265t175.5 237t242.5 181h-764v-84h-33z" />
<glyph unicode="8" horiz-adv-x="1011" d="M72 399q0 117 68 219.5t163 145.5q-78 47 -132.5 143t-53.5 205q0 162 112.5 259t272.5 97q166 0 275.5 -100.5t109.5 -255.5q-1 -110 -65.5 -206.5t-139.5 -141.5q119 -46 189.5 -144t70.5 -219q-7 -212 -128 -326t-312 -114q-177 0 -299 112.5t-131 325.5zM197 371 q0 -70 19.5 -135.5t56.5 -118t96.5 -84t132.5 -31.5q132 0 222.5 113t88.5 256q-2 147 -90.5 260.5t-220.5 109.5q-72 -2 -131 -35t-96.5 -85t-57.5 -116.5t-20 -133.5zM240 1112q0 -84 28.5 -156.5t90 -121t143.5 -48.5q111 0 186.5 98.5t75.5 227.5q0 80 -28.5 151 t-90 119t-143.5 48q-80 0 -141.5 -47t-91 -118.5t-29.5 -152.5z" />
<glyph unicode="9" horiz-adv-x="980" d="M61 -340q228 64 411 238.5t247 369.5q-98 -82 -225 -82q-72 0 -140 28t-122 79t-86.5 130t-32.5 173q0 176 114.5 293t276.5 117q198 0 303.5 -122t89.5 -392q-9 -146 -87.5 -295.5t-195.5 -266t-261 -199.5t-281 -108zM246 590q4 -171 81 -262.5t191 -91.5t211 81 q26 69 35.5 155.5t-2.5 173.5t-41.5 160t-87 118.5t-133.5 44.5q-122 -1 -189.5 -107.5t-64.5 -271.5z" />
<glyph unicode=":" horiz-adv-x="458" d="M133 94q0 41 29.5 70t68.5 29q37 0 66 -29t29 -70q0 -40 -28.5 -68t-66.5 -28q-39 0 -68.5 28t-29.5 68zM135 905q0 41 29.5 70t68.5 29q37 0 65 -29t28 -70t-28 -68.5t-65 -27.5q-39 0 -68.5 28t-29.5 68z" />
<glyph unicode=";" horiz-adv-x="440" d="M102 98q0 43 29.5 73t73.5 30q61 0 96 -43t35 -111q0 -74 -44 -153t-130 -142q-7 6 -11 8q-1 1 -8 10q-2 3 -4 5q49 42 84 117q39 87 1 104q-8 4 -19 4q-44 0 -73.5 28.5t-29.5 69.5zM104 905q0 41 30 70t69 29q37 0 64.5 -29t27.5 -70t-27.5 -68.5t-64.5 -27.5 q-39 0 -69 28t-30 68z" />
<glyph unicode="?" horiz-adv-x="983" d="M90 1217q0 52 21.5 105t64.5 102.5t121.5 81t179.5 32.5q110 1 194 -33t133 -93t73 -129.5t24 -149.5q0 -63 -25 -120.5t-64.5 -103t-88 -90t-97.5 -92t-90.5 -98t-69 -118.5t-30.5 -144h-53q-9 76 6.5 144.5t47.5 120.5t72.5 100.5t82.5 94t77 90.5t57 101t22 115 q2 166 -69 264.5t-202 99.5q-104 0 -177 -83.5t-71 -190.5q0 -62 -16 -90.5t-57 -28.5q-30 0 -48 32t-18 81zM311 94q0 41 30 70t69 29q37 0 63.5 -29t26.5 -70t-26.5 -68.5t-63.5 -27.5q-39 0 -69 28t-30 68z" />
<glyph unicode="@" horiz-adv-x="1538" d="M63 479q0 165 58 317t157.5 264t239 178.5t295.5 66.5q203 0 359.5 -105t224 -261t78.5 -318.5t-67.5 -293.5t-223.5 -171q-73 -16 -120 19.5t-58 100.5q-31 -55 -83.5 -98t-114 -62.5t-122.5 -19.5t-115.5 31t-85.5 90q-121 225 15 463q50 87 146.5 141.5t206 49 t181.5 -84.5q33 99 156 99v-25q-14 0 -24 -3t-23 -13t-21.5 -34.5t-11.5 -61.5l-18 -345q3 -97 18 -134q23 -58 78 -58q133 29 193 172q63 146 26 338q-41 208 -177 350q-168 174 -421 174q-136 0 -253.5 -68.5t-195 -178.5t-121.5 -247t-44 -276q0 -203 71 -370t189 -261.5 t258 -99.5q83 -3 164 8.5t167.5 42t166.5 92.5t141 150l18 -33q-92 -162 -271 -244.5t-388 -76.5q-138 4 -259 66t-207.5 166.5t-135 251t-46.5 312.5zM524 418q-1 -46 11 -95t36.5 -94.5t67.5 -73.5t98 -26q75 3 152 57.5t112 122.5l17 451q-47 74 -154 86 q-72 4 -131 -22.5t-96.5 -71t-63.5 -103.5t-37 -116.5t-12 -114.5z" />
<glyph unicode="A" horiz-adv-x="1400" d="M70 0v33h110l518 1401h86l418 -1305q6 -20 10 -30t14.5 -29t26.5 -28t37 -9h53v-33h-362v33h53q31 0 31 32q0 16 -8 41l-142 467h-489l-197 -540h105v-33h-264zM444 612h455l-207 674z" />
<glyph unicode="B" horiz-adv-x="1107" d="M82 0v33h125v1370h-125v31h553q88 -3 159 -33.5t115 -78.5t69 -110q24 -60 26 -124q0 -4 1 -9q0 -59 -20 -117q-21 -62 -61 -112t-105.5 -83.5t-146.5 -39.5h8q172 0 276 -121q90 -104 90 -247q0 -145 -96 -244q-111 -115 -309 -115h-559zM354 33h224h4q156 -1 240 77 q86 78 85 207v93q0 150 -101 225q-95 70 -258 70h-22h-172v-672zM354 743h172h12q159 0 241 76q85 79 85 213v84q0 128 -70 208q-69 79 -212 79h-4h-224v-660z" />
<glyph unicode="C" horiz-adv-x="1236" d="M84 698q0 66 6 132t23 141t44 142t71 129.5t101 107t137.5 71.5t176.5 27q165 0 265 -51t163 -168v205h66v-377q0 -76 -66 -76q-30 0 -44 15t-19 51q-6 57 -18 104t-38.5 97.5t-64.5 85t-101 57t-143 22.5q-103 0 -179.5 -44t-119 -119.5t-62.5 -163.5q-19 -83 -18 -177 v-10q-1 -90 -1 -182t1 -185q-1 -239 106.5 -377.5t272.5 -138.5q90 0 155 28t99.5 59.5t59 102t30.5 106t16 119.5q3 26 5 38q3 26 27.5 46t54.5 20q32 0 49 -28q14 -24 14 -53v-10q-6 -65 -26.5 -128.5t-62 -124.5t-98 -107t-140.5 -74t-183 -28q-115 0 -210.5 42.5 t-158.5 113t-106.5 164.5t-63 193t-20.5 203z" />
<glyph unicode="D" horiz-adv-x="1191" d="M82 0v35h125v1364h-125v35h440q97 0 179 -24t141 -64.5t106 -97.5t77 -120t49.5 -135.5t27.5 -140t8 -137.5q0 -95 -11.5 -179t-37.5 -166.5t-71.5 -148t-109 -116t-154.5 -78t-204 -27.5h-440zM350 35h172q95 0 172 35.5t125.5 93t81.5 134.5t46.5 155t13.5 159v209 q-1 81 -19.5 163.5t-55.5 158t-88 133.5t-123 92q-70 33 -148 33h-5h-172v-1366z" />
<glyph unicode="E" horiz-adv-x="1085" d="M82 0v35h108v1366h-108v33h874l13 -301q-26 -8 -58 11.5t-32 53.5q0 117 -27.5 160t-93.5 43h-422v-653h317q7 0 12.5 1t16 9t18 22.5t15 45t10.5 73.5h35v-350h-35q-12 101 -23 124q-14 32 -49 32h-317v-670h452q65 0 93 41t28 153q0 33 32 52.5t58 11.5l-14 -291z" />
<glyph unicode="F" horiz-adv-x="1069" d="M82 0v31h63q41 0 41 73v1297h-104v33h907l12 -301q-26 -8 -58 11.5t-32 53.5q0 118 -27.5 160.5t-92.5 42.5h-461v-672h317q60 0 72 152h35v-349h-35q-12 101 -23 124q-14 32 -49 32h-317v-584q0 -17 0.5 -24t3.5 -21.5t11 -21t22 -6.5h57v-31h-342z" />
<glyph unicode="G" horiz-adv-x="1353" d="M104 702q1 186 46.5 332t123.5 235t177 135t213 46q195 0 313 -73t178 -242q9 -35 9 -68q0 -31 -18 -57q-19 -27 -54 -29q-29 -2 -52.5 14t-23.5 45q0 373 -350 373q-75 0 -142 -29t-122.5 -87t-88 -155t-32.5 -222v-414q1 -120 32 -216t83.5 -155.5t117.5 -90.5 q64 -30 134 -30h5q77 1 137 26.5t107.5 82t72.5 156t25 239.5v6v6.5t-0.5 7t-1 7.5t-2 7t-4 7t-5.5 5.5t-7.5 5t-10 2.5t-12.5 1h-125v39h445v-39h-86h-7.5h-7.5t-7.5 -0.5t-8 -1.5t-7 -3t-7.5 -4.5t-6.5 -6.5t-6 -9.5t-5 -13t-3.5 -16.5v-516h-57v274q-50 -148 -158.5 -222 t-259.5 -74q-83 0 -160 25.5t-147.5 82t-122 138.5t-81.5 204q-30 119 -30 263v9z" />
<glyph unicode="H" horiz-adv-x="1294" d="M82 1399v35h356v-35h-53q-33 0 -44 -14.5t-11 -57.5v-594h628v590q0 76 -53 76h-49v35h356v-35h-53q-33 0 -44 -16t-11 -60v-1214q0 -76 43 -76h57v-33h-350v33h70q8 0 14 2.5t9.5 8.5t6 10t3.5 14t1 13.5v15v12.5v585h-628v-585q0 -26 12.5 -50t38.5 -24h57v-33h-354v31 h61q39 0 39 76v1218q0 72 -53 72h-49z" />
<glyph unicode="I" horiz-adv-x="518" d="M82 0v35h61q43 0 43 76v1216q0 72 -53 72h-49v33h352v-33h-49q-33 0 -44 -14.5t-11 -57.5v-1216q0 -28 10.5 -52t36.5 -24h57v-35h-354z" />
<glyph unicode="J" horiz-adv-x="995" d="M61 408q0 30 21 53t57 22q13 0 23 -4.5t17 -13.5t12 -19t7.5 -26.5t4 -30.5t1.5 -36v-38.5t-0.5 -41.5t-0.5 -42q0 -99 66 -156t157 -57q97 0 164 76.5t67 235.5v997q0 72 -51 72h-49v35h356v-35h-49q-33 0 -44 -14.5t-11 -57.5v-711q0 -163 -31 -287.5t-85 -198 t-120.5 -110t-142.5 -36.5q-71 0 -135.5 26.5t-117.5 77t-84.5 133.5t-31.5 187z" />
<glyph unicode="K" horiz-adv-x="1243" d="M82 1401v33h354v-33h-53q-33 -3 -41 -15.5t-8 -56.5v-545l592 617h-129v33h280v-33h-100l-488 -512l607 -854h106v-35h-399v35h121l-539 747l-51 -51v-620q0 -28 10.5 -52t36.5 -24h57v-35h-354v35h63q43 0 43 76v1218q0 6 -1.5 14.5t-6.5 23t-18 24.5t-33 10h-49z" />
<glyph unicode="L" horiz-adv-x="1165" d="M102 0v35h115v1292q0 72 -53 72h-49v33h352v-33h-49q-34 0 -45 -14.5t-11 -57.5v-1292h547q66 0 93.5 39.5t27.5 150.5q0 33 32 52.5t58 11.5l-14 -287q-221 0 -542 -1t-462 -1z" />
<glyph unicode="M" horiz-adv-x="1720" d="M82 2v33h86v1366h-86v33h172h178v-33h-92l543 -1114l514 1112h-94v35h350v-35h-97v-1284q0 -29 10 -54.5t36 -25.5h57v-33h-354v33h61q43 0 43 80v1202l-578 -1264l-614 1264v-1282h86v-33h-221z" />
<glyph unicode="N" horiz-adv-x="1314" d="M82 0v35h86v1364h-86v35h121q67 0 102.5 -33t100.5 -135l735 -1149v1282h-82v33h205v-33h-78v-1399h-146l-825 1294v-1259h76v-35h-209z" />
<glyph unicode="O" horiz-adv-x="1273" d="M92 582v274q0 67 14.5 139.5t54 156t98.5 148t158.5 107.5t223.5 43q125 0 223.5 -43t156 -107.5t95.5 -148t51.5 -155t14.5 -138.5v-276q0 -46 -6.5 -96.5t-24 -110.5t-44 -114.5t-70 -106.5t-97.5 -90t-131 -61t-168 -23q-124 0 -223.5 44t-158.5 109.5t-98.5 150 t-54 158t-14.5 140.5zM246 582q0 -46 4.5 -94t16.5 -105t30.5 -108t49.5 -99.5t71 -83.5t97.5 -56.5t125.5 -21.5q70 0 128.5 21t98.5 56t71 83.5t48.5 99t28.5 108t14.5 105.5t3.5 95v274q0 69 -8.5 136t-34.5 146t-67 137.5t-114.5 98t-168.5 39.5q-94 0 -167 -39.5 t-115 -98t-68.5 -137t-35.5 -146.5t-9 -136v-274z" />
<glyph unicode="P" horiz-adv-x="1001" d="M61 0v35h64q14 0 22 7t11 22t3.5 22.5t0.5 24.5v1288h-101v35h469q110 -4 198 -42t142 -98.5t82 -136.5q28 -75 29 -152q-1 -81 -31 -157t-84 -136.5t-141 -98.5t-195 -42h-223v-460q0 -17 0.5 -24.5t3.5 -22.5t11 -22t22 -7h57v-35h-340zM307 612h223q130 5 214.5 94.5 t84.5 249.5v115q0 69 -18 125.5t-47 93.5t-68.5 62t-80.5 35.5t-85 11.5h-223v-787z" />
<glyph unicode="Q" horiz-adv-x="1271" d="M94 582v268v7q0 115 32 217q33 106 99 191t175.5 135t250.5 50q121 0 224 -50t171 -134t106 -192q36 -105 36 -218v-6v-268q0 -97 -28 -191t-82 -177.5t-143.5 -146.5t-203.5 -90q-111 -50 -187 -90t-98 -53t-62.5 -44.5t-43.5 -33.5q49 4 121 4q89 -3 161 -46.5 t156 -123.5q26 -25 67 -37q33 -10 67 -10q8 0 16 1q43 3 81 30t56 74q10 68 22 89q15 24 41 24q12 0 27 -5q15 -13 15 -34q0 -17 -10 -40q-23 -52 -81 -110t-106 -76q-95 -35 -174 -35q-43 0 -83 11q-109 30 -220 153q-51 57 -128 57l-1 1q-77 0 -136 -52q-18 -14 -30 -35.5 t-16 -38.5t-10.5 -32.5t-14 -18t-25.5 4.5q6 99 84 184q85 94 181 155t251 130h-5q-130 0 -236 48q-107 48 -175 131.5t-104.5 192t-36.5 230.5zM244 582q1 -301 98 -434q95 -130 305 -130h6q381 2 381 564v268q-2 119 -23.5 217.5t-65.5 177.5t-119 123.5t-175 44.5 q-95 0 -166.5 -29.5t-117 -79t-73.5 -123t-39 -153.5t-11 -178v-268z" />
<glyph unicode="R" horiz-adv-x="1148" d="M82 2v33h55q43 0 43 78v1288h-98v31h481q101 0 182.5 -32t131.5 -85.5t76 -119t26 -136.5q0 -127 -79 -225.5t-222 -120.5q63 -6 112.5 -25t83 -44.5t58 -63.5t37.5 -74t20.5 -84t9.5 -85t2 -85v-109q0 -68 10 -101.5t40 -33.5q65 0 99 48.5t56 152.5h25 q-23 -123 -66 -177.5t-114 -54.5q-33 0 -63 8t-61 27t-50 59t-19 97q-2 189 -23 276q-49 201 -232 241q-49 11 -109 11h-164v-583q0 -78 45 -78h57v-33h-350zM330 733h135q163 2 264.5 72t101.5 188v119q0 109 -80 194.5t-194 92.5h-227v-666z" />
<glyph unicode="S" horiz-adv-x="1187" d="M104 410q0 49 27 82q25 30 63 30h7q49 -4 65 -42q12 -28 12 -58q0 -11 -2 -23q-6 -39 -6 -75v-5q0 -33 6 -69q6 -38 21 -70.5t41.5 -63t63.5 -52t91.5 -35t122.5 -15.5h16q74 0 138 25q71 28 118 75.5t73.5 107t27.5 120.5v6q0 47 -15 87q-16 43 -55.5 87t-116 81.5 t-186.5 64.5q-252 62 -362 163q-108 99 -107 235q0 78 33 149q32 69 90 123t148 85q80 27 174 27h24q80 -2 146 -22t109 -51.5t70.5 -65.5t39.5 -70v191h70v-373q0 -30 -15.5 -54t-54.5 -24q-36 0 -52 22.5t-16 55.5q-1 55 -6 94.5t-23 90t-48 83t-86 57t-134 29.5 q-17 1 -33 1q-146 0 -242 -81q-101 -86 -101 -200v-11q3 -89 94 -163t282 -121q254 -62 362 -178q106 -113 105 -283v-6q-1 -78 -32 -148.5t-88 -125.5t-147 -87.5t-200 -32.5q-136 0 -252 53t-188 153.5t-72 226.5z" />
<glyph unicode="T" horiz-adv-x="1198" d="M61 1133l13 299h1050l13 -302q-26 -8 -58 12t-32 54q0 117 -27.5 160t-93.5 43h-258v-1288q0 -28 10.5 -52t36.5 -24h57v-35h-354v35h63q43 0 43 76v1288h-262q-62 0 -88.5 -42.5t-26.5 -158.5q0 -34 -31 -53.5t-55 -11.5z" />
<glyph unicode="U" horiz-adv-x="1290" d="M20 1399v35h355v-35h-53q-32 -3 -39 -15t-7 -57v-508q0 -104 2.5 -180.5t8.5 -156.5t18 -136.5t30.5 -110.5t45.5 -89t63.5 -62.5t85 -40t109.5 -12.5q85 0 152.5 19t116 52t83.5 87t57 115.5t34.5 147t17 170.5t4.5 197v580h-127v35h293v-35h-121v-580 q0 -182 -15 -312.5t-51 -234.5t-98 -166t-154.5 -94t-222.5 -32q-73 0 -133 11t-106.5 30t-82.5 52.5t-62 71.5t-44 95t-29.5 113.5t-17.5 137t-8 156t-2 178.5v502q0 72 -53 72h-50z" />
<glyph unicode="V" horiz-adv-x="1390" d="M41 1399v35h356v-35h-63q-11 -1 -17 -6.5t-7.5 -15t-1 -19.5t4.5 -24t7.5 -24.5t8.5 -24.5t7 -21l385 -1186l463 1321h-127v35h293v-35h-121l-481 -1364h102v-35h-385v35h123l-402 1237q-24 77 -43 101q-20 26 -47 26h-55z" />
<glyph unicode="W" horiz-adv-x="2308" d="M41 1399v35h356v-35h-63q-15 -2 -21 -11t-4 -26.5t5 -30t11.5 -36t10.5 -29.5l385 -1186l399 1141q-3 9 -9 28q-10 32 -15.5 48t-15.5 39.5t-18.5 34.5t-21 19.5t-26.5 8.5h-56v35h392v-35h-64q-26 0 -39.5 -9t-14 -28t3.5 -36.5t12 -45.5q3 -11 5 -16l385 -1186 l463 1321h-127v35h293v-35h-121l-481 -1364h102v-35h-385v35h123l-364 1118l-393 -1118h102v-33h-385v33h123l-402 1239q-24 78 -45 102q-20 23 -45 23h-55z" />
<glyph unicode="X" horiz-adv-x="1396" d="M61 0v35h136l452 633l-430 645l-5 9q-6 9 -7.5 11t-7 10.5t-8 11.5t-9 10.5t-10.5 10.5t-10.5 8t-12.5 7.5t-13.5 4.5t-14.5 3h-53v35h374v-35h-55q-16 0 -22 -10t-3 -24.5t9 -28.5t14 -25l354 -535l420 625h-143v33h325v-33h-133l-444 -662l426 -622q35 -51 55.5 -66.5 t65.5 -15.5h35v-35h-381v35h45q36 0 36 22q0 16 -20 45l-350 529l-426 -596h137v-35h-326z" />
<glyph unicode="Y" horiz-adv-x="1415" d="M61 1401v33h369v-33h-63q-26 0 -26 -22q0 -20 22 -58q3 -5 4 -8l364 -701l443 789h-130v33h299v-33h-122l-469 -830v-460q0 -17 0.5 -24.5t3.5 -22.5t12 -22t23 -7h65v-35h-364v35h57q26 0 37.5 24.5t11.5 51.5v469l-373 700q0 1 -9 19t-12 23.5t-11.5 21.5t-15 23 t-15.5 16.5t-18 13.5t-19 4h-64z" />
<glyph unicode="Z" horiz-adv-x="1216" d="M82 2v35l868 1360h-612q-2 0 -22 -0.5t-27.5 -2t-21.5 -6t-21 -14.5t-10 -26v-131q0 -41 -26 -55t-53.5 -6t-33.5 24q-18 34 -19 78v6q0 40 12 76q14 38 46 65t76 27h880v-39l-864 -1356h707q36 1 53 15.5t22 47.5v142q18 52 56 61q6 1 12 1q32 0 59 -42q12 -25 12 -56 q1 -11 -1 -22q-6 -45 -22 -85.5t-46 -68.5q-29 -28 -60 -28h-2q-254 -2 -494 -2t-468 2z" />
<glyph unicode="[" horiz-adv-x="364" d="M84 -166v1565q-1 89 38 114t161 23v-39h-117v-1769h117v-35q-98 0 -123 6q-58 15 -71 80q-5 23 -5 55z" />
<glyph unicode="\" horiz-adv-x="649" d="M61 1536h43l504 -1573h-43z" />
<glyph unicode="]" horiz-adv-x="366" d="M84 -270h117v1769h-117v35q98 0 123 -6q58 -15 71 -80q5 -23 5 -55v-1565q1 -89 -38 -114t-161 -23v39z" />
<glyph unicode="_" horiz-adv-x="1118" d="M0 -59h1118v-47h-1118v47z" />
<glyph unicode="a" horiz-adv-x="991" d="M72 262q4 88 60 157.5t147 111t201 63.5q105 21 217 20h10q0 351 -224 351q-65 0 -122.5 -24.5t-97 -79t-40.5 -128.5q-1 -70 -48 -88q-13 -5 -26 -5q-26 0 -49 20q-29 26 -29 64q0 20 8 44q6 18 17 37q109 190 368 190h19q74 -2 135 -21t98.5 -48.5t64 -62.5t39.5 -69 t18.5 -60.5t5.5 -43.5v-657h106v-33q-60 1 -97 2t-65 7t-41 10.5t-23 20t-12.5 27t-6.5 39.5q-65 -119 -252 -122h-23h-33q-27 2 -67 8t-73 16.5t-68.5 31.5t-60 50t-40.5 73t-16 99zM215 262q0 -240 238 -244h4q91 0 155 42q66 43 93 122v396q-65 0 -128 -8.5t-130 -30.5 t-117 -56.5t-82.5 -91.5t-32.5 -129z" />
<glyph unicode="b" horiz-adv-x="997" d="M41 0v32h111v1471h-111v33h48h46.5t40.5 -2t37.5 -6t29.5 -13t24.5 -22t14 -33t5.5 -47v-555q37 44 85 75t101 46q44 12 90 12h19q56 -3 108.5 -21.5t99 -60t81 -99t55 -142.5t20.5 -187q0 -118 -27.5 -210.5t-73 -148t-104.5 -90.5q-59 -36 -123 -44q-35 -5 -69 -4 q-29 0 -57 3q-62 7 -116 29.5t-93 55.5q0 -17 -8 -30t-22 -20.5t-32.5 -12.5t-40.5 -6.5t-45.5 -2t-47 0t-46.5 -0.5zM287 104q69 -52 141 -76q52 -17 100 -17q18 0 36 2q64 9 115 47t81.5 117t30.5 190v231q0 100 -24.5 174.5t-65.5 114t-94 55.5q-31 9 -64 9q-23 0 -45 -4 q-56 -11 -111 -44.5t-100 -85.5v-713z" />
<glyph unicode="c" horiz-adv-x="952" d="M74 483q0 131 38 232.5t102 161t140 90t160 32.5h16q54 1 106 -11q60 -14 114.5 -42.5t92 -80.5t46.5 -120q1 -10 2 -18q0 -48 -38 -71q-19 -11 -36 -11q-18 0 -36 12q-31 22 -31 72v12q1 12 1 23q-1 94 -61 146q-68 58 -168 59q-54 0 -104.5 -21t-93 -62.5t-68 -114.5 t-25.5 -167v-162q0 -82 15.5 -151t48.5 -127.5t91.5 -91.5t137.5 -33q87 0 165.5 46.5t121.5 123.5h39q-56 -123 -144.5 -173t-222.5 -50q-78 0 -150.5 33t-130.5 94t-93 157t-35 213z" />
<glyph unicode="d" horiz-adv-x="999" d="M63 487q0 113 29.5 207t78.5 155.5t115 98.5t138 43q15 1 30 1q58 0 118 -18q76 -23 145 -75v602h-107v33q15 0 44 0.5t43 0.5t37.5 -1t35.5 -4.5t29 -9t25.5 -15t17.5 -22.5t12.5 -31.5t3.5 -42.5v-1376h100v-33h-172q-32 5 -46 16t-17 43q-75 -45 -153 -65 q-60 -15 -118 -14q-18 0 -34 1q-74 6 -139 42t-113 96.5t-75.5 155t-27.5 212.5zM209 367q0 -109 32 -187t85.5 -115t119.5 -46q19 -3 39 -3q47 0 97 16q70 22 133 66v760q-44 38 -98 62q-55 23 -111 30q-16 2 -31 2q-41 0 -79 -13q-54 -18 -95 -57t-66.5 -112.5 t-25.5 -173.5v-229z" />
<glyph unicode="e" horiz-adv-x="954" d="M72 487q0 136 51.5 252t150 188t222.5 72q109 0 189 -33.5t124 -92t64 -126.5t20 -149q0 -109 -117 -109h-545q0 -50 2.5 -93t5.5 -72.5t10.5 -57t11.5 -42t13.5 -31.5t13 -22t14 -18t11.5 -14q34 -41 89.5 -66.5t105.5 -27.5h8q82 0 160 39q82 41 137 137h39 q-45 -106 -135 -169.5t-213 -63.5q-187 0 -309.5 143t-122.5 356zM231 524h265h174q50 0 70 33t20 78v94q0 112 -72.5 174t-173.5 62q-51 0 -100.5 -20t-90.5 -56.5t-66.5 -95t-25.5 -129.5v-140z" />
<glyph unicode="f" horiz-adv-x="608" d="M72 950v35h127v62q0 489 290 489q109 0 165.5 -61.5t56.5 -159.5q0 -26 -15.5 -47.5t-40.5 -24.5q-24 -3 -43.5 17.5t-19.5 62.5q0 33 -1.5 56t-8 48.5t-17 40.5t-30.5 25t-48 10q-161 -2 -161 -389v-129h221v-35h-221v-846q0 -16 0.5 -24.5t3.5 -22t11 -20t21 -6.5h58 v-31h-322v31h54q26 0 36.5 24.5t10.5 53.5v841h-127z" />
<glyph unicode="g" horiz-adv-x="1036" d="M41 -225q0 161 295 225q-69 26 -100 72q-29 44 -29 95v7q2 42 21.5 70.5t70.5 60.5q-79 26 -153 126q-72 99 -72 207q0 78 29 144q28 64 71 104.5t96 68t103 39.5q46 10 87 10h7q99 -1 183.5 -32t125.5 -81q5 19 11.5 33t18.5 29t32 23t47 9h121v-33h-138l2 -321 q1 -77 -39 -149.5t-109.5 -122.5t-163.5 -73q-46 -11 -95 -11q-50 0 -103 12q-79 -42 -79 -101v-6q1 -32 44.5 -54t106.5 -30q88 -11 130.5 -17t107 -18t93.5 -24t67.5 -31.5t54 -44.5t27.5 -59.5t12 -79.5q0 -70 -30 -128t-77.5 -95.5t-108.5 -63t-120 -36.5t-115 -11 q-51 0 -106 9t-114 30.5t-105.5 53t-76.5 82t-30 112.5zM156 -223q0 -116 92 -181t225 -67h8q146 0 247 70t101 170v6q-1 24 -6.5 43.5t-12.5 35t-22.5 28t-28 21.5t-39 17.5t-45 14t-55.5 12t-61 10t-72 11t-79 12.5q-252 -71 -252 -203zM207 643q0 -324 252 -324h3 q16 0 29 0.5t42.5 6.5t53 17t52.5 35t48 57t32.5 87t13.5 121q0 87 -22 152.5t-60 102t-83 54t-97 17.5q-53 0 -99 -18.5t-83.5 -56.5t-59.5 -102.5t-22 -148.5z" />
<glyph unicode="h" horiz-adv-x="1081" d="M51 1503v33h47.5h45.5t40 -2t36.5 -6t28.5 -13t23.5 -22t13 -33t5.5 -47v-586q45 76 132 121t183 45q63 0 119 -21.5t101.5 -64.5t72.5 -115.5t27 -166.5v-516q0 -18 0.5 -25.5t3.5 -23t11 -22.5t22 -7h57v-31h-328v31h64q43 0 43 78v509q0 166 -65 249t-163 83 q-81 0 -160 -52t-120 -134v-655q0 -22 1 -35t10.5 -28t27.5 -15h57v-31h-334v31h64q45 0 45 78v1394h-111z" />
<glyph unicode="i" horiz-adv-x="438" d="M43 0h334v31h-58q-32 0 -32 73v779q0 49 -20.5 75.5t-57.5 26.5h-154v-33h95v-848q0 -73 -44 -73h-63v-31zM141 1227q0 34 22 57t56 23t57 -23t23 -57t-23 -57t-57 -23t-56 23t-22 57z" />
<glyph unicode="j" horiz-adv-x="614" d="M-68 -311q19 -103 87 -152t161 -49q258 0 258 457v940q0 49 -20.5 75.5t-57.5 26.5h-163v-33h108v-876q0 -249 -11 -340q-25 -213 -122 -213q-32 0 -54.5 14t-34 40.5t-16.5 51t-8 58.5q0 3 -0.5 18t-1 23.5t-4.5 22t-11 21t-20 13.5t-32 6q-37 0 -50 -34 q-10 -24 -10 -48q0 -11 2 -22zM291 1233q0 34 22 57t56 23t57 -23t23 -57t-23 -57t-57 -23t-56 23t-22 57z" />
<glyph unicode="k" horiz-adv-x="1060" d="M82 1501v33h42.5t41.5 -0.5t36.5 -2t35 -4.5t28.5 -9t25 -15t17 -21.5t12.5 -30.5t3.5 -40v-805l419 346h-133v33h322v-33h-123l-354 -297l473 -624h82v-31h-340v31h104l-416 547l-34 -31v-438v-11.5v-13.5t0.5 -12.5t2 -12.5t4 -10.5t6 -9.5t9 -5.5t12.5 -2.5h58v-31 h-330v31h64q43 0 43 78v1392h-111z" />
<glyph unicode="l" horiz-adv-x="489" d="M82 1501v33q14 0 47.5 0.5t46.5 0.5t39.5 -2t37.5 -7t28 -14t24 -22.5t13 -33.5t6 -47v-1300q0 -55 13 -69q8 -9 23 -9h58v-31h-324v31h64q6 0 11.5 1.5t9 5t6 7t4 10t2.5 10t1.5 11.5t0.5 11v12v10v1392h-111z" />
<glyph unicode="m" horiz-adv-x="1789" d="M61 952v35q28 -1 54 0t50 -0.5t44.5 -5t37 -13t28 -24t18.5 -39t8 -57.5q64 65 156 104q91 38 183 42q9 0 19 1q81 0 156 -35q83 -39 127 -120q44 59 113.5 97t144.5 51q41 7 82 7q36 0 70 -5q76 -11 136 -44t98 -94t38 -141v-602q0 -18 0.5 -25.5t3.5 -23t11 -22.5 t22 -7h57v-31h-323v31h63q6 0 11.5 1.5t9 5t6 7t4 10t2.5 10t1.5 11.5t0.5 11v12v10v602q0 85 -31.5 142t-81 79.5t-110.5 23.5h-6q-58 0 -114 -20q-58 -20 -108 -56.5t-77 -82.5v-688q0 -55 13 -69q8 -9 23 -9h58v-31h-318v31h64q41 0 41 78v596q0 95 -39 157t-101 80 q-41 12 -86 13q-23 1 -48 -3q-72 -10 -144.5 -52t-126.5 -105v-689q0 -18 0.5 -25t3.5 -22t11 -21.5t22 -6.5h57v-31h-323v31h63q14 0 22 6.5t11 21.5t3.5 22t0.5 25v846h-111z" />
<glyph unicode="n" horiz-adv-x="1114" d="M61 952v35h38t36 -0.5t31.5 -1.5t30.5 -3.5t25.5 -7.5t23 -12t17 -18t14 -25t8 -33t4.5 -42q44 59 111.5 97.5t139.5 52.5q40 8 80 7q32 -1 64 -5q73 -10 131 -43t95 -95t38 -143v-606q0 -18 0.5 -25.5t3.5 -23t11 -22.5t22 -7h57v-31h-319v31h63q6 0 11.5 1.5t9 5t6 7 t4 10t2.5 10t1.5 11.5t0.5 11v12v10v636q0 74 -29.5 125t-75.5 73q-48 23 -106 23h-2q-58 0 -114 -20q-58 -20 -110 -60.5t-85 -92.5v-684q0 -18 0.5 -25.5t3.5 -23t11 -22.5t22 -7h57v-31h-325v31h63q18 0 27.5 15t10.5 28t1 35v843h-109z" />
<glyph unicode="o" horiz-adv-x="985" d="M72 492q0 118 25.5 209.5t66.5 147t99 91t115 48.5t122 13q60 0 114.5 -13t110.5 -48.5t96.5 -90.5t66 -147t25.5 -210q0 -119 -26.5 -211t-67.5 -147t-97.5 -90.5t-110 -48.5t-111.5 -13q-65 0 -122 13t-115 48.5t-99 90.5t-66.5 147t-25.5 211zM223 389q0 -47 5 -90.5 t23 -97t46.5 -92t81 -65t121.5 -26.5q53 0 95 18t68.5 49.5t45.5 68.5t28 81t13 80.5t4 73.5v209q0 367 -254 367q-68 0 -120 -26t-81 -64t-47 -90t-23.5 -95.5t-5.5 -89.5v-211z" />
<glyph unicode="p" horiz-adv-x="1015" d="M51 952v35q120 -2 153 -9q77 -16 87 -83q2 -12 2 -25q47 56 114.5 87t139.5 35h15q64 0 130 -28q72 -30 129 -87.5t93.5 -159t37.5 -230.5v-7q0 -114 -30 -207q-30 -96 -81.5 -156t-120 -95t-142.5 -38h-15q-66 0 -133 23q-75 26 -139 81q0 -119 1 -264.5t1 -220.5v-4 q0 -16 0.5 -25t3.5 -23t11.5 -21t21.5 -7h57v-35h-324v35h64q6 0 11.5 1.5t9 5.5t6 7t4 10t2.5 10.5t1.5 12t0.5 11.5v12v10v1349h-111zM293 137q29 -40 78 -69t105 -42q29 -6 57 -6t56 6q57 12 103.5 46t75.5 105.5t29 170.5v266q0 101 -28 175.5t-72.5 111.5t-100.5 50 q-27 6 -55 6t-57 -7q-55 -13 -106 -47.5t-85 -85.5v-680z" />
<glyph unicode="q" horiz-adv-x="966" d="M63 508q0 82 23.5 160.5t64 142.5t99.5 107.5t128 60.5q32 8 67 8q40 0 84 -10q83 -19 167 -78q11 39 34 62t75 24h121v-33h-95v-1349q0 -18 0.5 -25.5t3.5 -23t11 -22.5t22 -7h58v-37h-324v35h64q11 0 18 5t9 15.5t2.5 18.5t-0.5 22t-1 19v473q-112 -83 -228 -90h-22 q-102 0 -182 54q-88 59 -144 182q-55 122 -55 280v6zM211 420q0 -111 24 -193.5t64 -126t91 -63.5q38 -15 79 -15q13 0 26 2q54 6 105.5 30.5t93.5 64.5v739q-47 43 -101.5 67t-108.5 26h-9q-48 0 -93 -19q-50 -22 -88 -63.5t-60.5 -111t-22.5 -157.5v-180z" />
<glyph unicode="r" horiz-adv-x="792" d="M61 0v31h64q6 0 11.5 1.5t9 5t6 7t4 10t2.5 10t1.5 11.5t0.5 11v12v10v843h-99v35h41q50 0 80 -3.5t53.5 -12t34.5 -28t16.5 -46.5t6.5 -72q50 75 74 100q73 76 176 76q102 0 165.5 -58.5t63.5 -151.5q0 -33 -19 -51.5t-46 -18.5q-66 0 -66 86q0 115 -72 148 q-24 11 -49 11q-42 0 -89 -30q-89 -57 -123 -177q-17 -57 -17 -122v-528q0 -18 0.5 -25.5t3.5 -23t11 -22.5t22 -7h57v-31h-324z" />
<glyph unicode="s" horiz-adv-x="876" d="M109 387q14 5 26 5q22 0 40 -17q21 -18 21 -49q0 -5 -1 -11q-3 -24 -3 -46q0 -52 15 -95q21 -61 62 -93t89 -46q38 -11 78 -11q11 0 23 1q105 7 173 67t68 137q0 123 -280 213q-50 16 -87 30.5t-80 39t-70 53t-45.5 70.5t-18.5 92q0 118 107 203q92 73 224 73q22 0 44 -2 q85 -7 147.5 -33.5t94.5 -63t46 -72.5q10 -28 10 -56q0 -8 -1 -16q-6 -55 -51 -67q-10 -3 -19 -3q-25 0 -44 21q-20 23 -13 57q5 22 5 42q-1 62 -47 104q-60 54 -157 57h-10q-53 1 -105 -19q-57 -22 -97 -69.5t-40 -108.5q0 -21 8 -40.5t19 -34t32.5 -29.5t37 -24.5 t44.5 -21.5t43.5 -17t46 -15.5t39.5 -13.5q87 -30 142.5 -57.5t97.5 -63.5t60.5 -81t19.5 -106v-4q1 -114 -103 -196q-102 -80 -277 -80h-13q-56 1 -115.5 22.5t-112.5 59.5q-52 40 -86 102q-33 61 -33 133q0 62 46 80z" />
<glyph unicode="t" horiz-adv-x="630" d="M31 950v35q73 0 120.5 16t75.5 53.5t40 88.5t14 129h32v-287h172v-35h-172v-610v-26.5v-35t1 -35.5t2.5 -40.5t5 -37t8.5 -37t12.5 -29.5t17.5 -25q33 -33 80 -33q60 0 96 48t46 116h34q-10 -108 -63 -162.5t-127 -54.5q-141 0 -199 106q-41 71 -41 246v610h-155z" />
<glyph unicode="u" horiz-adv-x="1044" d="M31 952v33h114q61 0 94 -28t33 -95v-610q0 -67 29.5 -117.5t75.5 -76t103 -33.5q24 -3 47 -3q31 0 63 6q54 11 99.5 40t68.5 71v813h-103v33h105q68 0 102.5 -26.5t34.5 -98.5v-827h107v-33h-173q-39 4 -53 25.5t-18 60.5q-33 -42 -92 -68q-60 -24 -128 -30 q-17 -1 -35 -2q-52 0 -105 12q-71 16 -128.5 51.5t-94 97.5t-36.5 142v663h-110z" />
<glyph unicode="v" horiz-adv-x="1177" d="M31 952v33h372v-33h-73q-28 0 -28 -30q0 -13 5 -31l311 -823l361 884h-119v33h277v-33h-113l-395 -952h-127l-344 891q-9 32 -21 46.5t-39 14.5h-67z" />
<glyph unicode="w" horiz-adv-x="1824" d="M31 952v33h372v-33h-73q-22 0 -27 -19.5t4 -41.5l299 -823l271 665l-97 252h344v-33h-112q-25 0 -35.5 -15t-9.5 -33t8 -38l303 -798l348 884h-119v33h277v-33h-113l-383 -952h-127l-262 680l-283 -680h-127l-331 891q-1 2 -4 10t-4 10t-4 8.5t-4 8t-4.5 6.5t-6 6.5 t-6 4.5t-7.5 4t-9 2t-11 1h-67z" />
<glyph unicode="x" horiz-adv-x="1069" d="M51 952v35h344v-35h-41q-30 0 -30 -19q0 -17 22 -48l219 -310l279 377h-107v35h260v-35h-102l-305 -407l317 -455q3 -3 13 -14t12.5 -13t10 -9.5t11 -9t10.5 -5.5t13 -5t14.5 -2t18.5 -1h37v-31h-357v31h41q39 0 39 20q0 12 -14 31l-248 354l-297 -405h104v-31h-254v31 h103l323 438l-307 422q-20 27 -26.5 35t-20.5 17t-31 9h-51z" />
<glyph unicode="y" horiz-adv-x="1142" d="M20 952v33h383v-33h-77q-23 0 -27.5 -19.5t6.5 -41.5l375 -723l281 784h-123v33h274v-33h-111l-342 -954q-43 -106 -83.5 -188.5t-72 -136.5t-65 -92t-56 -57.5t-51.5 -29.5t-45.5 -12t-43.5 -2q-90 0 -151.5 64t-61.5 157q0 84 77 84q26 0 43.5 -23.5t14.5 -50.5 l-17 -112q0 -34 21.5 -56t69.5 -22q98 0 185.5 115.5t186.5 363.5l-456 891q-18 42 -29 50q-13 11 -37 11h-68z" />
<glyph unicode="z" horiz-adv-x="915" d="M61 0l594 950h-401q-12 0 -21.5 -3t-15 -10.5t-9 -13.5t-5.5 -18t-2.5 -18t-1 -19.5t-0.5 -17.5q-6 -59 -62 -59q-20 0 -38.5 21t-18.5 44q0 17 5 36.5t17 41.5t37.5 36.5t61.5 14.5h635l-586 -950h469q22 0 34 23.5t9 50.5q-1 14 -1 27q0 30 8 46q12 24 50 23 q37 1 53 -27q13 -21 13 -48q0 -8 -2 -17q-7 -49 -41 -81t-101 -32h-680z" />
<glyph unicode="{" horiz-adv-x="550" d="M82 618q65 33 97 85.5t33.5 113t-11 130.5t-31 138.5t-32.5 135t-9.5 123t32 100t98 68t183.5 24.5l27 -25q-77 0 -127.5 -20t-73 -54t-30 -81t1 -101t19 -114.5t25 -120t18.5 -119.5t-0.5 -111.5t-31.5 -97t-75 -74.5q48 -29 75 -74.5t31.5 -97t0.5 -111t-18.5 -119 t-25 -119.5t-19 -113.5t-1 -100.5t30 -80.5t73 -53t127.5 -19.5l-29 -33q-112 0 -182.5 24.5t-98 68t-32 100.5t9.5 124t32.5 135.5t31.5 138.5t11.5 131t-33.5 113.5t-97 85.5z" />
<glyph unicode="|" horiz-adv-x="657" d="M307 -512v2050h43v-2050h-43z" />
<glyph unicode="}" horiz-adv-x="550" d="M82 -279q77 0 127.5 20t73 54t30 81t-1 101t-19 114.5t-25 120t-18.5 119.5t0.5 111.5t31.5 97t75 74.5q-48 29 -75 74.5t-31.5 97t-0.5 111t18.5 119t25 120t19 114t1 100t-30 80.5t-73 53.5t-127.5 19.5l29 33q71 0 125 -9.5t88.5 -28.5t57.5 -42.5t31.5 -57.5 t10.5 -67t-5 -76.5t-15.5 -81t-20.5 -85.5q-12 -47 -18 -71.5t-15 -68t-10 -69.5t-1 -63t9 -62t23 -52.5t39 -49t59 -38.5q-65 -33 -97 -85.5t-33.5 -113t11 -130t31 -138t32.5 -135t9.5 -123.5t-32 -100t-98 -67.5t-183.5 -24.5z" />
<glyph unicode="&#xa3;" horiz-adv-x="1107" d="M29 8q-6 37 12.5 83.5t51 101.5t66 119.5t59.5 159.5t30 200h-219v33h217q0 40 -13.5 180.5t-13.5 179.5q0 160 94.5 266.5t266.5 106.5q134 0 229.5 -87t95.5 -223q0 -43 -17.5 -71.5t-43.5 -28.5q-76 0 -80 86q-2 32 -5 58t-10.5 61t-21 61.5t-33 51t-51 38.5t-70.5 15 q-58 0 -98.5 -22t-62 -63t-31 -89t-10.5 -109q-1 -82 13 -227t13 -184h181v-33h-179q-4 -69 -14.5 -122t-29.5 -95t-34 -68t-44 -67.5t-44 -65.5q50 14 98.5 11.5t87.5 -11.5t82.5 -34t82.5 -55.5t88 -76.5q36 -34 94 -46t114 13.5t76 89.5q2 7 5.5 21t5.5 24.5t7 24.5 t10.5 22t14.5 16t21 6.5t29 -5.5q28 -23 3.5 -74.5t-83.5 -109.5t-107 -76q-143 -54 -253.5 -23.5t-219.5 152.5q-53 59 -133.5 61.5t-134.5 -55.5q-14 -16 -24.5 -38.5t-14.5 -38.5t-11.5 -31.5t-15.5 -17.5t-26 5z" />
<glyph unicode="&#xad;" d="M102 588v53l408 2v-53z" />
<glyph unicode="&#x2000;" horiz-adv-x="783" />
<glyph unicode="&#x2001;" horiz-adv-x="1567" />
<glyph unicode="&#x2002;" horiz-adv-x="783" />
<glyph unicode="&#x2003;" horiz-adv-x="1567" />
<glyph unicode="&#x2004;" horiz-adv-x="522" />
<glyph unicode="&#x2005;" horiz-adv-x="391" />
<glyph unicode="&#x2006;" horiz-adv-x="261" />
<glyph unicode="&#x2007;" horiz-adv-x="261" />
<glyph unicode="&#x2008;" horiz-adv-x="195" />
<glyph unicode="&#x2009;" horiz-adv-x="313" />
<glyph unicode="&#x200a;" horiz-adv-x="87" />
<glyph unicode="&#x2010;" d="M102 588v53l408 2v-53z" />
<glyph unicode="&#x2011;" d="M102 588v53l408 2v-53z" />
<glyph unicode="&#x2012;" d="M102 588v53l408 2v-53z" />
<glyph unicode="&#x2013;" horiz-adv-x="1224" d="M102 592v49h1020v-49h-1020z" />
<glyph unicode="&#x2014;" horiz-adv-x="1550" d="M102 588v51h1346v-51h-1346z" />
<glyph unicode="&#x2018;" horiz-adv-x="522" d="M123 1196q0 90 54 188.5t157 174.5q7 -7 24 -27q-54 -48 -93 -135q-46 -101 -9 -128q10 -7 27 -7q51 0 83.5 -34t32.5 -85q0 -52 -32.5 -86.5t-83.5 -34.5q-76 0 -118 49t-42 125z" />
<glyph unicode="&#x2019;" horiz-adv-x="516" d="M123 1440q0 51 33 86t82 35q73 0 114 -47t41 -121q0 -86 -54.5 -189t-150.5 -176q-4 4 -7 6.5t-3.5 2.5t-1.5 1t-1.5 2t-3.5 5t-7 10q52 46 91 133q43 99 9 127q-9 8 -26 8q-50 0 -82.5 33t-32.5 84z" />
<glyph unicode="&#x201a;" horiz-adv-x="495" d="M102 121q0 51 33 87t82 36q73 0 114.5 -48.5t41.5 -125.5q0 -90 -53 -190.5t-152 -178.5l-7 7t-3.5 3t-1.5 1t-1.5 2t-3 5.5t-6.5 10.5q51 49 89 138q43 102 7 128q-10 6 -24 6q-49 0 -82 34t-33 85z" />
<glyph unicode="&#x201c;" horiz-adv-x="874" d="M125 1178q-6 92 43 196t149 185q8 -8 12 -10q1 -1 3 -5l8 -12q-50 -50 -86 -138q-42 -103 -3 -125q9 -5 21 -5q46 0 77.5 -34t31.5 -85t-31.5 -86t-77.5 -35q-66 0 -104 42t-43 112zM496 1176q-8 91 42 196.5t150 186.5q8 -8 12 -10q1 -1 3 -5l8 -12q-50 -50 -86 -138 q-42 -103 -3 -125q9 -5 21 -5q46 0 77.5 -34t31.5 -85t-31.5 -86t-77.5 -35q-65 0 -103 41.5t-44 110.5z" />
<glyph unicode="&#x201d;" horiz-adv-x="905" d="M123 1444q0 51 33 87t82 36q72 0 112.5 -47t42.5 -121q3 -91 -50 -193t-155 -182l-10 10q-2 1 -2 2q-3 6 -10 17q51 49 89 138q43 102 7 128q-10 6 -24 6q-49 0 -82 34t-33 85zM532 1444q0 51 33 87t80 36q73 0 113.5 -48t42.5 -124q2 -90 -50.5 -191.5t-152.5 -179.5 q-8 8 -12 10q-1 1 -5 8q-4 6 -8 11q52 49 90 138q44 102 6 128q-9 6 -24 6q-48 0 -80.5 34t-32.5 85z" />
<glyph unicode="&#x201e;" horiz-adv-x="905" d="M102 117q0 51 33 87t82 36q73 0 114.5 -48.5t41.5 -125.5q0 -90 -53 -190.5t-152 -178.5l-7 7t-3.5 3t-1.5 1t-1.5 2t-3 5.5t-6.5 10.5q51 49 89 138q43 102 7 128q-10 6 -24 6q-49 0 -82 34t-33 85zM512 117q0 51 33 87t80 36q73 0 113 -48t42 -124q2 -90 -50.5 -191.5 t-151.5 -179.5q-8 8 -12 10q-1 1 -5 8q-4 6 -8 11q52 49 90 138q44 102 6 128q-9 6 -24 6q-48 0 -80.5 34t-32.5 85z" />
<glyph unicode="&#x2026;" horiz-adv-x="1376" d="M205 94q0 41 29.5 70t68.5 29q37 0 63.5 -29t26.5 -70t-26.5 -68.5t-63.5 -27.5q-39 0 -68.5 28t-29.5 68zM614 94q0 41 30 70t69 29q37 0 63.5 -29t26.5 -70t-26.5 -68.5t-63.5 -27.5q-39 0 -69 28t-30 68zM1026 94q0 41 29.5 70t68.5 29q37 0 63.5 -29t26.5 -70 t-26.5 -68.5t-63.5 -27.5q-39 0 -68.5 28t-29.5 68z" />
<glyph unicode="&#x202f;" horiz-adv-x="313" />
<glyph unicode="&#x205f;" horiz-adv-x="391" />
<glyph unicode="&#x20ac;" horiz-adv-x="1331" d="M61 561l17 51h293q0 12 -1.5 34.5t-2 35.5t0 35t3.5 47h-310l17 55h297q22 153 80.5 268.5t161 199.5t262 122t370.5 25l-2 -189h-28v154q-79 2 -144 -1.5t-135.5 -17.5t-125 -39.5t-105.5 -70t-84 -105t-52.5 -148t-19.5 -196.5h500l-17 -57h-483q1 -8 0.5 -77t-0.5 -75 h500l-17 -53h-483q1 -87 22.5 -161.5t57.5 -127.5t83 -95.5t101 -69t109 -44.5t109.5 -24.5t100.5 -6.5t83 7v147h28v-182q-61 -11 -129.5 -12.5t-147 10t-154 35.5t-148 69t-130.5 106t-100.5 151.5t-58.5 199.5h-318z" />
<glyph unicode="&#x25fc;" horiz-adv-x="983" d="M0 0v983h983v-983h-983z" />
</font>
</defs>
</svg>
