<?xml version="1.0" standalone="no"?>
<!DOCTYPE svg PUBLIC "-//W3C//DTD SVG 1.1//EN" "http://www.w3.org/Graphics/SVG/1.1/DTD/svg11.dtd" >
<svg xmlns="http://www.w3.org/2000/svg">
<metadata></metadata>
<defs>
<font id="night_still_comesitalic" horiz-adv-x="612" >
<font-face units-per-em="2048" ascent="1536" descent="-512" />
<missing-glyph horiz-adv-x="512" />
<glyph unicode="&#xfb01;" horiz-adv-x="1146" d="M-246 -287q0 32 20 68.5t58 36.5q16 0 27 -4t17 -12t9.5 -15t3 -20t-0.5 -19.5t-2.5 -19.5t-2.5 -15q-20 -186 84 -186q33 0 60.5 27.5t46 70t34 98t25.5 106t18 99.5q3 21 5 31l172 1010h-205v35h211q19 114 49 203t79 166t124.5 119t173.5 42q73 0 130.5 -25.5 t89.5 -63t52.5 -82.5t26.5 -80.5t4 -61.5q-3 -29 -24 -47.5t-48 -18.5q-31 2 -51.5 21t-19.5 55q2 43 -3 84t-19.5 86.5t-49 73.5t-84.5 28t-95 -30t-77.5 -79t-58.5 -114.5t-42 -134.5t-24 -141h491q74 0 58 -103l-119 -682q-10 -56 -10.5 -87.5t4 -42t14.5 -13.5 q21 -8 40.5 8.5t27.5 32.5l51 94l25 -27q-31 -97 -73 -146.5t-106 -49.5q-51 0 -79 37.5t-29.5 88t4.5 101.5l129 754h-434l-168 -1010q-35 -213 -130.5 -339t-197.5 -126q-38 0 -73.5 12.5t-67 38t-50.5 69t-20 99.5z" />
<glyph unicode="&#xfb02;" horiz-adv-x="1112" d="M-246 -287q0 32 20 68.5t58 36.5q16 0 27 -4t17 -12t9.5 -15t3 -20t-0.5 -19.5t-2.5 -19.5t-2.5 -15q-20 -186 84 -186q20 0 38 9.5t32.5 29.5t27 41t23.5 54t18.5 59t16 65t13 62t11 60.5t9.5 51.5l182 989h-211v35h217q15 108 35.5 190t55.5 156.5t82 122t116.5 75 t157.5 27.5q57 0 103.5 -9.5t76 -26t53 -37t33.5 -42.5t17.5 -44t6 -40.5t-1.5 -31.5l-196 -1118q-10 -56 -10.5 -88t4 -42.5t14.5 -13.5q21 -8 40 8.5t27 32.5l52 95l24 -27q-31 -95 -72 -141.5t-106 -46.5q-51 0 -79 35.5t-29.5 84t4.5 99.5l194 1118q13 82 -28 143 t-132 62q-67 1 -119 -32.5t-81 -72t-54 -123.5t-33.5 -131t-24.5 -151q-3 -21 -5 -31h213v-35h-217l-172 -989q-36 -214 -131.5 -339.5t-196.5 -125.5q-38 0 -73.5 12.5t-67 38t-50.5 69t-20 99.5z" />
<glyph horiz-adv-x="0" />
<glyph horiz-adv-x="682" />
<glyph unicode=" "  horiz-adv-x="512" />
<glyph unicode="&#x09;" horiz-adv-x="512" />
<glyph unicode="&#xa0;" horiz-adv-x="512" />
<glyph unicode="!" horiz-adv-x="436" d="M14 96q0 41 30 70t69 29q37 0 63.5 -29t26.5 -70t-26.5 -68.5t-63.5 -27.5q-39 0 -69 28t-30 68zM129 373l160 1087q5 31 28 52.5t52 21.5q30 0 50.5 -22t14.5 -52l-237 -1095q-7 -26 -39 -23q-14 2 -23 10.5t-6 20.5z" />
<glyph unicode="&#x22;" horiz-adv-x="894" d="M287 1133l2 303q6 47 37 71.5t75 24.5q51 0 75.5 -28.5t10.5 -67.5l-108 -303q-11 -33 -53 -33q-20 0 -29.5 10t-9.5 23zM606 1133l2 303q6 47 37.5 71.5t75.5 24.5q51 0 75.5 -28.5t10.5 -67.5l-109 -303q-11 -33 -53 -33q-20 0 -29.5 10t-9.5 23z" />
<glyph unicode="#" horiz-adv-x="1599" d="M61 410l13 53h411l76 358h-411l10 49h411l86 408h68l-86 -408h420l86 408h69l-86 -408h410l-10 -49h-410l-76 -358h410l-12 -53h-410l-86 -410h-70l87 410h-420l-86 -410h-68l86 410h-412zM553 463h420l76 358h-420z" />
<glyph unicode="$" horiz-adv-x="1134" d="M61 408q0 47 24.5 81t70.5 33q32 -1 51 -21.5t20.5 -46t-0.5 -48.5q-7 -37 -7 -76.5t6.5 -84.5t26.5 -86t49.5 -75.5t79 -58t112.5 -29.5l116 663q-90 22 -161 60.5t-117 86t-73.5 104t-34 114t5 115.5t40.5 110t76 96t107 74t138 44t165 7l12 70h41l-14 -76 q71 -11 127.5 -39.5t89.5 -65t51 -74.5t20 -75l33 222h70l-56 -373q-2 -15 -5 -25t-10 -24t-21 -21.5t-35 -7.5q-38 0 -56 24t-12 54q13 50 6 108.5t-27 110t-67.5 93t-114.5 56.5l-104 -598q103 -25 180.5 -77t121 -117.5t60 -142t5 -151.5t-52 -144.5t-103.5 -122.5 t-157.5 -84.5t-205.5 -30.5l-28 -164h-45l28 164q-128 9 -226 74t-148.5 163t-51.5 212zM333.5 1093.5q11.5 -54.5 46.5 -102.5t103.5 -87.5t161.5 -59.5l105 590q-81 9 -154 -6.5t-125 -49t-87.5 -80t-48.5 -98.5t-1.5 -106.5zM539 -6q96 0 179.5 39t135.5 99.5t71.5 136 t1.5 146.5t-89 134t-187 96z" />
<glyph unicode="%" horiz-adv-x="1280" d="M164 1145q-2 41 15.5 96t53.5 117q16 26 36.5 52.5t60 62t81.5 54.5t99 17t113 -37q44 -27 68.5 -56.5t29.5 -48.5t8.5 -45.5t7.5 -37.5q45 -136 239 58q65 64 140 161h70l-955 -1536h-51l842 1364q-62 -66 -110.5 -101t-82 -38.5t-56 9t-42.5 40.5q-20 -87 -58.5 -157.5 t-86.5 -113.5t-100 -66t-104 -20t-95 29q-21 11 -40 26.5t-40 39.5t-31 57t-12 74zM212 1107.5q1 -20.5 8 -44.5t27.5 -45.5t53.5 -42.5q37 -21 71.5 -23t58.5 8t48.5 34.5t37.5 42.5t30 46q19 30 34.5 58t34.5 59q16 26 25 42.5t22.5 46t15 52.5t-1.5 50t-22 50.5t-51 43.5 q-79 46 -138.5 22.5t-123.5 -129.5q-13 -21 -38.5 -63.5t-29.5 -48.5q-20 -36 -30.5 -57.5t-21.5 -51t-10 -50zM630.5 306.5q14.5 69.5 63.5 148.5t105.5 123.5t109 52t96 -2t82.5 -34.5q40 -25 66.5 -60t39 -84.5t-4.5 -117.5t-66 -146q-51 -81 -105.5 -126t-105 -52t-90 2 t-78.5 33q-38 24 -66 58.5t-44.5 85t-2 120zM677 215q-14 -73 64 -132q9 -7 21 -15q27 -16 52 -21t44.5 -3t40 15t32.5 23t29 32.5t23.5 33t20.5 32.5q18 28 73 117q51 80 62 120q25 93 -68 152q-79 45 -137.5 21t-124.5 -129q-62 -99 -72 -113q-53 -95 -60 -133z" />
<glyph unicode="&#x26;" horiz-adv-x="1198" d="M64.5 365q-8.5 76 10 152.5t62.5 142t120.5 116t176.5 72.5q-169 79 -219 219q-42 119 15 229q54 102 165 137q146 46 318 -49q-8 -7 -13.5 -11t-13.5 -11q-52 37 -118 43t-121.5 -16t-94 -71.5t-39.5 -115.5q-1 -65 22 -120.5t60 -92.5t84 -63.5t93 -39t90 -14.5 q0 -14 -4.5 -23t-11 -14t-20.5 -7.5t-25 -3t-31.5 -1.5t-34.5 -2q-128 -9 -222 -116t-94 -263q0 -172 91 -282t225 -113q102 -2 187.5 40.5t134.5 117.5t59 176.5t-39 216.5q-14 -3 -40 -7.5t-44 -7.5t-42.5 -9t-40.5 -12t-34 -15t-26.5 -21t-14.5 -27t-2 -34.5t16 -42.5 l-31 -19q-54 104 4.5 160.5t247.5 87.5q173 29 211 113q22 47 -8 83q-15 19 -35 21l-2 35q55 3 84 -46q32 -55 -1 -120q-48 -91 -204 -129q63 -133 58 -250t-57.5 -204t-153 -136.5t-227.5 -48.5q-103 1 -189.5 34.5t-143.5 88t-93 126t-44.5 147.5z" />
<glyph unicode="'" horiz-adv-x="493" d="M287 1135l2 303q6 47 37 71.5t75 24.5q51 0 75.5 -28.5t10.5 -67.5l-108 -303q-11 -33 -53 -33q-20 0 -29.5 10t-9.5 23z" />
<glyph unicode="(" horiz-adv-x="489" d="M68 118.5q-20 258.5 27.5 520.5t157.5 509t257 390l31 -25q-127 -130 -228 -372t-150 -501t-38 -513t92 -403l-33 -25q-96 161 -116 419.5z" />
<glyph unicode=")" horiz-adv-x="485" d="M-51 -279q127 130 226 366.5t147 492t37.5 511.5t-89.5 420l27 25q97 -164 118.5 -422.5t-25.5 -520t-156.5 -507.5t-256.5 -389z" />
<glyph unicode="*" horiz-adv-x="806" d="M186 1219q-3 20 19.5 32t46.5 9q146 -29 221 -27q-13 30 -33.5 58.5t-53 66.5t-42.5 51q-45 56 -4 80q23 13 40 -3.5t26 -41.5q43 -121 88 -199q34 42 90 201q9 25 27 39.5t38 3.5q20 -12 19.5 -34t-13.5 -40q-7 -8 -33 -39t-43.5 -52.5t-36 -48t-24.5 -40.5 q39 -14 195 18q87 13 92 -39q2 -21 -13.5 -30.5t-35 -7.5t-35.5 4q-140 28 -207 30q22 -34 70.5 -97.5t52.5 -68.5q55 -64 8 -92q-25 -15 -44.5 6t-27.5 50q-45 132 -79 188q-20 -34 -48 -113.5t-36 -97.5q-33 -56 -66 -39q-20 10 -21 35.5t13 42.5q17 28 70.5 91t64.5 93 q-28 5 -215 -30q-26 -3 -47.5 7t-22.5 34z" />
<glyph unicode="," horiz-adv-x="393" d="M41 -231q57 43 106 116q58 88 20 105q-8 4 -20 4q-24 0 -49 35t-22 67q5 43 33.5 71t72.5 28q51 0 83 -45t22 -109q-13 -73 -71.5 -152.5t-156.5 -142.5q-5 6 -7.5 7.5t-3 3t-7.5 12.5z" />
<glyph unicode="-" d="M102 588v53h408v-51z" />
<glyph unicode="." horiz-adv-x="280" d="M41 94q0 41 29.5 70t68.5 29q37 0 63.5 -29t26.5 -70t-26.5 -68.5t-63.5 -27.5q-39 0 -68.5 28t-29.5 68z" />
<glyph unicode="/" horiz-adv-x="1036" d="M41 -37l952 1524h43l-952 -1524h-43z" />
<glyph unicode="0" horiz-adv-x="976" d="M81 248.5q-17 96.5 1 230.5q18 119 58 212.5t89.5 151t112 95t121.5 52t121 14.5q49 0 93.5 -10.5t88.5 -34.5t76 -63.5t55 -98t25.5 -137t-11.5 -181.5q-81 -510 -510 -510q-76 0 -140 29.5t-113.5 91.5t-66.5 158.5zM205 229q17 -93 71 -157t140 -64q69 0 132 35.5 t103 87.5q146 192 158 545q2 49 -9 98t-35 95t-71 73.5t-110 26.5q-162 -3 -285 -217q-64 -113 -89.5 -259.5t-4.5 -263.5z" />
<glyph unicode="1" horiz-adv-x="555" d="M61 0v35h148l149 844l-135 -99l-14 25l229 178h56l-166 -948h141v-35h-408z" />
<glyph unicode="2" horiz-adv-x="925" d="M72 0v37q57 22 125 60t145.5 94t146 120t126.5 143t87 158q19 50 25 106.5t-2.5 111t-43.5 94t-93 49.5q-36 6 -69 -4t-56 -29t-42 -45.5t-30 -51t-18 -48.5q-14 -50 -55 -60q-36 -9 -53 19q-17 26 -1 69q21 58 69.5 102t108 64.5t126 23.5t122.5 -22t97.5 -72t52 -126 t-14.5 -183q-21 -79 -74 -154t-116 -131t-142 -106.5t-140.5 -81.5t-121.5 -55h514v80h41q-1 -44 -3 -67t-8 -44.5t-19 -30t-33.5 -13.5t-54.5 -5z" />
<glyph unicode="3" horiz-adv-x="970" d="M72 -33q8 30 38.5 36t56.5 -12t21 -48q-21 -135 34.5 -210.5t160.5 -78.5q73 -2 135.5 30t104.5 87.5t70 122t40 139.5q13 80 4 153.5t-41.5 128.5t-91 73t-143.5 -13q-24 -9 -30.5 2.5t-4.5 38.5q132 29 242 142.5t114 225.5q7 176 -147 187q-85 5 -140.5 -52 t-74.5 -126q-14 -49 -54 -59q-36 -10 -55 18q-17 26 0 69q31 76 123.5 131.5t206.5 55.5q140 -1 206.5 -82.5t45.5 -194.5q-14 -81 -75.5 -159t-160.5 -132q130 -35 185 -143t37 -244q-11 -84 -47.5 -160.5t-97 -139.5t-153 -100t-204.5 -36q-100 1 -178.5 45.5t-115 125.5 t-11.5 179z" />
<glyph unicode="4" horiz-adv-x="993" d="M51 59l744 924h55l-154 -872h201v84h35v-220h-35v84h-209l-55 -311q-11 -72 26 -72h127v-41h-467v41h123q43 0 54 72l55 311h-500zM141 109h418l117 661z" />
<glyph unicode="5" horiz-adv-x="1093" d="M63 -90q0 37 23.5 65t63.5 27q25 0 44 -21.5t13 -60.5q-19 -135 64 -211q73 -67 181 -53q128 17 223 140q94 121 126 315q26 155 -1.5 261.5t-88 143.5t-132.5 36t-140.5 -50.5t-106.5 -126.5q-38 -75 -75 -99t-103 0l272 644q26 63 86 63h541v-143h-39v104h-387 q-30 0 -48.5 -9.5t-29.5 -37.5l-162 -389q67 61 154 83t167 0t145.5 -84.5t90 -170t-1.5 -256.5q-20 -103 -61 -184.5t-92 -133.5t-114 -85.5t-124.5 -47.5t-126.5 -14q-92 0 -176.5 38t-136.5 107t-48 150z" />
<glyph unicode="6" horiz-adv-x="997" d="M125 528q32 148 141 310t252.5 292t311 223t311.5 113v-36q-119 -32 -243 -108t-226.5 -172t-184.5 -201t-131 -201q108 87 234 90q163 4 251 -128.5t56 -330.5q-13 -80 -46.5 -151t-88.5 -130.5t-140 -95t-188 -35.5q-189 0 -277 152t-32 409zM245.5 376.5 q-5.5 -93.5 9 -176.5t62.5 -137.5t121 -56.5q57 -2 106.5 21t84.5 60.5t62.5 89t43.5 103t25 105.5q28 177 -38 287t-183 110q-98 0 -187 -77q-43 -58 -72 -146.5t-34.5 -182z" />
<glyph unicode="7" horiz-adv-x="899" d="M104 -276q15 104 54.5 225.5t110.5 261t162 265t221 238.5t276 181h-764l-2 -82h-33q1 46 2.5 68t7 46t17 33t31 15t51.5 6l733 2v-109q-109 -54 -200 -123t-157.5 -141t-121 -161t-90 -170.5t-65 -182.5t-47 -184.5t-34.5 -187.5q-7 -52 -29.5 -76.5t-58.5 -22.5 q-26 0 -47.5 33.5t-16.5 65.5z" />
<glyph unicode="8" horiz-adv-x="1048" d="M72 340q3 129 95.5 257.5t229.5 178.5q-67 46 -111 136.5t-42 170.5q3 163 124.5 275t311.5 112q158 0 245 -91t89 -236q1 -104 -71 -207.5t-185 -159.5q106 -55 162.5 -159t56.5 -209q0 -92 -38.5 -176t-106 -146.5t-168.5 -97t-218 -27.5q-184 10 -280.5 120t-93.5 259 zM217 299q0 -125 67.5 -211t184.5 -86q76 0 138.5 26t103 69t68 100t39.5 117.5t11 123.5q-2 127 -68 212t-190 85q-108 0 -191 -67.5t-123 -165.5t-40 -203zM377 1032q0 -100 52.5 -169.5t137.5 -69.5q84 0 148 38t99 100t51.5 131t15.5 142q-2 98 -50.5 162t-138.5 64 q-67 0 -122 -24.5t-90 -64t-59 -92t-34 -107t-10 -110.5z" />
<glyph unicode="9" horiz-adv-x="1032" d="M-41 -338q248 66 455.5 220t302.5 343q-112 -90 -234 -90q-151 0 -244.5 129.5t-62.5 329.5q11 79 45 150.5t89 131t140.5 95t188.5 35.5q189 0 277 -152.5t32 -409.5q-32 -148 -136.5 -291.5t-244 -251t-300.5 -181.5t-308 -95v37zM315 584q-26 -176 29 -286t164 -110 q112 0 225 82q39 69 65.5 160t32.5 184t-8.5 171.5t-62 128.5t-123.5 49q-122 -1 -208.5 -107.5t-113.5 -271.5z" />
<glyph unicode=":" horiz-adv-x="542" d="M102 94q0 41 30 70t69 29q37 0 64.5 -29t27.5 -70t-27.5 -68.5t-64.5 -27.5q-39 0 -69 28t-30 68zM250 909q0 41 29.5 70t68.5 29q37 0 64.5 -29t27.5 -70t-27.5 -68.5t-64.5 -27.5q-39 0 -68.5 28t-29.5 68z" />
<glyph unicode=";" horiz-adv-x="559" d="M102 -225q57 43 106 116q59 89 20 106q-8 3 -19 3q-24 0 -49.5 35t-22.5 67q5 43 34 71t73 28q51 0 82.5 -44.5t21.5 -109.5q-13 -74 -71 -153t-156 -142l-6 6t-2.5 2t-1.5 1.5t-3 4t-6 9.5zM266 909q0 41 30 70t69 29q37 0 64.5 -29t27.5 -70t-27.5 -68.5t-64.5 -27.5 q-39 0 -69 28t-30 68z" />
<glyph unicode="?" horiz-adv-x="968" d="M166 1212q7 41 27 83t57 85.5t85.5 77t119.5 54.5t153 22q104 1 181 -36t117 -97t54 -130.5t1 -142.5q-11 -63 -46 -120.5t-83 -103t-104 -90t-113.5 -92t-107.5 -98t-89 -118.5t-56 -144h-53q5 76 32 144.5t67.5 120.5t89 100.5t98.5 94t93 90.5t75 101t43 115 q29 164 -27 264.5t-178 100.5q-109 0 -190 -72t-107 -202q-12 -65 -28 -92t-56 -27q-31 0 -47.5 32.5t-7.5 79.5zM211 96q0 41 29.5 70t68.5 29q37 0 63.5 -29t26.5 -70t-26.5 -68.5t-63.5 -27.5q-39 0 -68.5 28t-29.5 68z" />
<glyph unicode="@" horiz-adv-x="1630" d="M128.5 250q-11.5 122 10.5 258q30 164 120.5 312t216 254t281 168.5t312.5 62.5q129 0 232.5 -44t168.5 -116.5t103.5 -167t45 -195.5t-15 -202.5t-68.5 -186.5t-123.5 -148.5t-172.5 -88.5q-75 -16 -116.5 20t-41.5 100q-48 -65 -112.5 -108.5t-130 -57.5t-126 -6.5 t-106.5 43t-65 91.5q-78 236 96 467q65 86 174.5 135t219.5 37t169 -91q50 99 170 99v-25q-14 0 -24.5 -3t-25.5 -13t-28.5 -34.5t-23.5 -61.5l-78 -345q-1 -4 -2 -14q-3 -23 -4.5 -36t-3 -37.5t2 -40t10.5 -32t22 -24.5t36 -8q76 16 138.5 69.5t101.5 129t56.5 167 t11.5 184.5t-41 180t-93.5 154.5t-154 108.5t-215.5 41q-136 0 -270.5 -64t-238.5 -168t-177.5 -238t-98.5 -271q-29 -156 -4.5 -293t84 -239.5t150 -163t194.5 -64.5q83 -3 165.5 8.5t174 42t183 92.5t167.5 150l13 -33q-120 -162 -313.5 -244.5t-401.5 -76.5 q-110 3 -207 46.5t-168 118.5t-119 177.5t-59.5 224.5zM618 375q-2 -42 9 -85.5t29 -78.5t52 -56.5t78 -19.5q77 3 163.5 55t133.5 119l97 451q-35 74 -140 86q-89 5 -164 -30t-125 -95.5t-81.5 -128.5t-44.5 -139q-5 -36 -7 -78z" />
<glyph unicode="A" horiz-adv-x="1302" d="M-20 0v33h114l703 1370q15 31 59 31h66l188 -1305q3 -21 4.5 -30.5t8.5 -28.5t21.5 -28t35.5 -9h49v-33h-363v33h58q39 0 39 50q0 11 -2 23l-66 467h-477l-279 -540h109v-33h-268zM438 612h447l-99 691z" />
<glyph unicode="B" horiz-adv-x="1196" d="M82 0v33h129l242 1370h-125v31h456q89 0 159.5 -26.5t113 -71t65.5 -102.5q23 -56 23 -116q0 -64 -24 -127q-23 -62 -65 -114.5t-108.5 -92.5t-148.5 -57h3q176 0 266 -117q63 -81 63 -187q0 -24 -3 -50q-18 -145 -131 -247q-141 -126 -370 -126h-545zM358 33h277 q115 0 205 69q92 69 122 168q23 74 22 147q0 25 -2 51q-10 99 -99 168t-234 69h-172zM485 743h172q194 0 289 139q64 92 64 210q0 20 -2 42q-12 133 -91 209q-62 60 -147 60h-170z" />
<glyph unicode="C" horiz-adv-x="1294" d="M83 608q3 258 125 476q130 233 349 326q126 54 272 54q162 0 254 -58t131 -177l35 196h66l-62 -368q-1 -47 -35 -67q-17 -11 -35 -10q-16 0 -31 9q-30 18 -30 62v6q1 26 1 51q1 28 -1 54q-4 48 -21.5 98.5t-49.5 86.5t-90 59.5t-138 25.5h-7q-168 0 -306 -136 q-141 -139 -204 -343q-62 -203 -72 -411q-1 -20 -1 -41q1 -181 79 -321q88 -154 251 -174q25 -3 48 -3q60 1 112 19q72 26 119 70.5t84 113t57 129.5t35 134q6 29 24.5 47t40.5 20.5t42 -5t30.5 -31t3.5 -56.5q-14 -74 -43 -142.5t-78.5 -132.5t-114.5 -109.5t-157 -70.5 q-72 -20 -154 -20q-23 0 -47 2q-238 14 -369 209q-113 169 -113 415v13z" />
<glyph unicode="D" horiz-adv-x="1343" d="M61 0v33h129l242 1370h-125v31h447q17 1 34 1q208 0 345 -163q128 -152 153 -392q5 -51 5 -102q0 -193 -76 -366q-104 -236 -314 -342q-143 -72 -321 -72q-31 0 -64 2h-455zM334 33h190h5q268 0 435 212q138 175 170 437q8 70 8 135q0 167 -54 310q-74 194 -219 254 q-59 25 -125 25q-9 0 -19 -1h-150z" />
<glyph unicode="E" horiz-adv-x="1140" d="M61 0v33h113l242 1370h-109v31h826l-41 -299q-28 -8 -56.5 11.5t-21.5 53.5q11 59 11 99q-1 39 -11 61q-20 43 -86 43h-367l-112 -641h317q59 0 100 156h33l-61 -353h-35q0 9 1 25q2 32 2 56.5t-4 41t-14.5 25t-29.5 8.5h-318l-121 -688h564q65 0 100 41t55 153 q6 33 42.5 52.5t60.5 11.5l-66 -291h-1014z" />
<glyph unicode="F" horiz-adv-x="1138" d="M61 0v33h68q42 0 53 73l230 1297h-105v31h914l-41 -301q-28 -8 -56.5 11.5t-21.5 53.5q11 59 11 100q-1 40 -11 61q-20 44 -86 44h-461l-115 -660h318q60 0 100 154h33l-62 -350h-34q0 9 1 25q2 32 2 56t-4 40.5t-14.5 25t-29.5 8.5h-318l-104 -596q-7 -20 -4 -46.5 t28 -26.5h51v-33h-342z" />
<glyph unicode="G" horiz-adv-x="1314" d="M94 575q1 257 118 481q125 236 336 338q135 66 294 66q92 0 170.5 -28.5t131 -75t84 -104t36.5 -117.5q2 -18 2 -35q0 -15 -2 -30q-3 -33 -20 -61t-48 -28q-25 0 -45 17.5t-16 45.5q6 40 6 76q0 114 -57 194q-76 107 -246 113h-12q-200 0 -355 -196q-140 -177 -196 -446 q-28 -133 -28 -253t28 -226q56 -217 212 -280q42 -18 91 -22q14 -1 29 -1q60 0 117 23q72 30 133.5 93t108.5 169t68 242q4 24 -2.5 34.5t-25.5 10.5h-125v39h444v-39h-117q-12 0 -17 -0.5t-13 -4t-12.5 -12t-6.5 -23.5l-86 -533h-57l43 234q-48 -82 -104 -137t-119 -83 t-122.5 -38.5t-135.5 -10.5q-236 0 -368 188q-116 165 -116 420z" />
<glyph unicode="H" horiz-adv-x="1435" d="M82 0v33h68q40 0 51 73l215 1225q2 7 2.5 15.5t-0.5 23t-12 24t-31 9.5h-49v31h356v-31h-53q-34 0 -47 -14.5t-21 -57.5l-104 -598h628l103 598q2 7 2.5 15t0 23t-11 24.5t-30.5 9.5h-49v31h356v-31h-53q-34 0 -48.5 -14.5t-21.5 -57.5l-213 -1222q-2 -16 -2 -28 q0 -48 33 -48h51v-33h-350v33h76q17 0 27.5 13.5t13 24.5t5.5 32q1 4 1 6l102 585h-628l-103 -588q-4 -26 4.5 -49.5t34.5 -23.5h51v-33h-354z" />
<glyph unicode="I" horiz-adv-x="661" d="M82 0v33h65q26 0 40 24t18 52l215 1222q0 1 1 8t1.5 14t-1.5 16.5t-6 16.5t-13 12t-23 5h-49v31h352v-31h-49q-34 0 -47 -14.5t-21 -57.5l-215 -1222q-2 -15 -2 -27q0 -49 35 -49h53v-33h-354z" />
<glyph unicode="J" horiz-adv-x="1079" d="M66 371q3 19 6 39q12 73 84 73q19 0 31 -8.5t16.5 -26t5.5 -37.5t-3 -48.5t-8.5 -54t-11.5 -58.5q-3 -13 -4 -19q-5 -26 -5 -50q0 -78 55 -129q53 -49 127 -49q15 0 31 2q112 14 188 123q55 81 77 202l176 1001q4 18 4 31q0 41 -42 41h-50v31h357v-31h-49 q-34 0 -47 -14.5t-21 -57.5l-125 -715q-49 -346 -226 -522q-125 -124 -272 -125h-3q-127 0 -210 93q-85 95 -85 245q0 31 4 64z" />
<glyph unicode="K" horiz-adv-x="1255" d="M61 0v33h68q26 0 39.5 24t17.5 52l215 1220l1 5v9.5t-1 11.5t-2.5 13t-5 13t-8.5 11.5t-13 7.5t-18 3h-49v31h354v-31h-53q-33 -3 -43 -16.5t-18 -57.5l-99 -565l691 639h-131v31h280v-31h-100l-559 -524l536 -846h103v-33h-414v33h125l-477 735l-60 -51l-110 -608 q-2 -15 -2 -28q0 -48 34 -48h54v-33h-355z" />
<glyph unicode="L" horiz-adv-x="1193" d="M72 0v35h123l225 1296q2 7 2.5 15.5t-0.5 23t-12 24t-31 9.5h-49v31h352v-31h-49q-34 0 -47 -14.5t-21 -57.5l-227 -1296h580q66 0 99.5 39t53.5 151q6 33 42.5 52.5t60.5 11.5l-66 -289h-1036z" />
<glyph unicode="M" horiz-adv-x="1787" d="M61 0v33h93l239 1370h-86v31h350v-31h-92l346 -1114l621 1114h-94v31h350v-31h-96l-78 -1294q-2 -15 -2 -27q0 -47 35 -47h51v-35h-355v33h68q44 0 55 76l64 1212l-707 -1264l-395 1264l-223 -1288h78v-33h-222z" />
<glyph unicode="N" horiz-adv-x="1468" d="M61 0v35h91l241 1368h-86v31h127q29 0 50.5 -7t36 -17t30 -34.5t26 -45t29.5 -64.5l535 -1149l225 1286h-82v29h205v-29h-78l-246 -1403h-145l-598 1294l-223 -1259h71v-35h-209z" />
<glyph unicode="O" horiz-adv-x="1249" d="M62 501q0 64 8 134q16 150 47.5 273t85.5 229t127.5 178t177 113t231.5 42h7q94 0 168 -26q78 -27 126.5 -71.5t82.5 -106t50 -124.5q16 -64 21 -132q3 -43 4 -80q0 -24 -2 -44q-3 -56 -12 -104q-22 -162 -53 -283.5t-82.5 -225.5t-122 -169.5t-170.5 -102t-230 -36.5 q-91 0 -164 21.5t-123 57.5t-86 88.5t-55 110t-28 125.5q-9 65 -9 126q1 4 1 7zM206 472q0 -12 -1 -23q0 -70 13 -145q15 -87 49.5 -153t102 -108.5t162.5 -42.5q56 0 104.5 14.5t87.5 38.5t73 64t60 81t49.5 101.5t40.5 114t34 128t28.5 134.5t26.5 143q8 49 13 98 q5 45 5 100v11q0 62 -9 117.5t-31.5 109.5t-57.5 92.5t-92 62.5t-131 24q-69 0 -128 -21t-104 -56.5t-83.5 -93t-66 -120.5t-52.5 -149.5t-42.5 -169t-35.5 -189.5q-13 -82 -15 -163z" />
<glyph unicode="P" horiz-adv-x="1146" d="M61 0v33h70q18 0 29.5 15.5t14 27t5.5 33.5q217 1232 228 1294h-101v31h475q212 0 315 -137q70 -92 70 -214q0 -29 -4 -59q-20 -162 -136 -282q-147 -152 -377 -158h-17h-223l-84 -475q-7 -20 -4 -48t28 -28h51v-33h-340zM414 618h223q148 0 236 80t124 258q8 39 13 70.5 t8 79.5q1 19 1 38q-1 26 -3 48q-4 38 -19 79.5t-41 68.5t-72 45t-108 18h-223z" />
<glyph unicode="Q" horiz-adv-x="1253" d="M-82 -489q18 67 66 127.5t89.5 98t135 87t129 65t146.5 61.5q20 9 30 13q-89 0 -162 25t-123.5 70.5t-87.5 108.5t-53.5 138.5t-21.5 160.5q-1 24 -1 48q0 62 9 127q22 186 64.5 326.5t102.5 235t143 153.5t179 84.5t217 25.5q120 0 208.5 -50.5t136 -137t65.5 -193.5 q11 -64 11 -134q0 -46 -5 -95q-15 -154 -43 -279.5t-75.5 -234t-114 -186t-159.5 -128t-210 -67.5q-164 -69 -248 -107.5t-105 -51t-73 -46.5q59 12 105 12t83.5 -9.5t74.5 -34t69 -55t75 -79.5q30 -34 87 -46q19 -4 38 -4q40 0 82 18q62 25 90 90q3 6 8 20.5t9 25 t11.5 25.5t14.5 22.5t18 16t22.5 6t27.5 -7.5q13 -7 13 -22q0 -18 -20 -50q-38 -56 -106.5 -113t-119.5 -75q-97 -36 -176 -36q-41 0 -76 10q-105 28 -199 155q-46 56 -117 56l-2 -1q-72 0 -147 -49q-22 -14 -38.5 -35.5t-22.5 -38.5t-14.5 -32.5t-15 -18t-24.5 4.5z M213 500q-1 -23 -1 -46q0 -47 4 -96q6 -74 28 -137.5t58 -114.5t97 -80q59 -28 135 -28h5q67 1 124.5 25t101.5 63t82 101t65.5 127.5t52.5 153.5t42 168.5t35 182.5q8 49 13 98q5 45 5 100v11q-1 63 -9.5 118t-31 109t-57.5 92.5t-92 62.5t-131 24q-69 0 -128 -21 t-104.5 -57t-84 -93t-66.5 -121t-52.5 -149.5t-42 -169t-34.5 -188.5q-11 -67 -14 -135z" />
<glyph unicode="R" horiz-adv-x="1204" d="M41 0v33h59q26 0 40 24.5t18 53.5l227 1292h-98v33h487q82 0 147 -21.5t105.5 -58t67 -85t31.5 -102.5q2 -25 2 -50q0 -30 -3 -60q-11 -75 -47 -138t-87 -105t-109 -68t-119 -35q61 -6 107.5 -25.5t75.5 -45.5t46.5 -64t24.5 -74q6 -32 6 -73v-12q-1 -48 -5.5 -85.5 t-12.5 -85.5q-26 -138 -26 -191t32 -53q65 0 103 47t79 154h33q-44 -123 -97 -177.5t-124 -54.5q-33 0 -61.5 8t-56.5 27q-26 19 -38 59q-6 21 -7 48q0 23 5 49q13 75 19 122q7 46 9 117v19q0 58 -14 96q-16 44 -47 89.5t-92 67t-148 21.5h-163l-103 -585q-3 -17 -3 -30 q0 -48 34 -48h53v-33h-350zM418 733h135q67 0 126 11t115.5 38.5t97 69.5t66 108.5t27.5 151.5v11q0 110 -56 193q-59 87 -167 87h-227z" />
<glyph unicode="S" horiz-adv-x="1167" d="M72 408q0 48 24 82q23 33 67 32h3q32 -1 51.5 -21.5t21 -46t-0.5 -48.5q-7 -37 -7 -77t6.5 -85t26.5 -86t50 -75.5t80 -57.5t114 -29q21 -2 41 -2q158 0 272 97q129 109 129 253q0 117 -77 191t-246 124q-117 34 -197.5 80.5t-121.5 101.5t-58 109t-17 119q0 82 37 158 t103.5 134.5t170.5 88.5q78 22 165 23q29 0 59 -3q80 -6 144 -34t101.5 -66.5t58 -79.5t22.5 -80l32 222h62l-47 -373q-3 -20 -7 -34t-21 -29t-44 -15q-38 0 -56 24t-12 54q8 40 8 81q1 37 -7 74q-8 40 -27 76.5t-46.5 66.5t-70.5 50.5t-96 26.5q-28 3 -55 3 q-63 -1 -121 -17q-82 -24 -137 -69.5t-87 -106.5q-31 -59 -30 -120q0 -28 8 -56q7 -24 17 -44t29.5 -39t34.5 -32.5t42.5 -29t45 -24t49.5 -21.5t47.5 -18.5t49.5 -17t45 -15.5q180 -63 273.5 -167t93.5 -242q0 -90 -37.5 -174t-105.5 -150.5t-176 -103.5q-93 -32 -204 -32 q-18 0 -36 1q-131 7 -231.5 72t-152 163.5t-52.5 213.5z" />
<glyph unicode="T" horiz-adv-x="1310" d="M82 1135l65 299h1092l-41 -301q-28 -8 -57 11.5t-23 53.5q11 59 11 100q-1 40 -11 61q-20 44 -86 44h-299l-225 -1294q-2 -15 -2 -27q0 -49 35 -49h53v-33h-354v33h67q26 0 40 24t18 52l225 1294h-262q-62 0 -95.5 -43t-54.5 -160q-6 -34 -39.5 -53.5t-56.5 -11.5z" />
<glyph unicode="U" horiz-adv-x="1288" d="M75 447q9 170 85 591q49 270 53 293l1 7q1 7 1.5 14.5t-1.5 17t-6 16.5t-13.5 12t-22.5 5h-49v31h354v-31h-53q-32 -3 -40.5 -15t-16.5 -57q-17 -92 -50 -267q-76 -404 -90 -560q-5 -62 -6 -115q0 -187 66 -270q67 -84 211 -84q83 0 142 8t117 34.5t98.5 67.5t82 116 t72.5 171.5t65 241.5t64 318.5t65 410.5h-127v31h293v-31h-121q-90 -565 -131 -751q-72 -330 -174 -474q-105 -148 -290 -184q-72 -14 -162 -14q-251 0 -345 116q-74 91 -74 288q0 30 2 63z" />
<glyph unicode="V" horiz-adv-x="1339" d="M82 1403v31h356v-31h-63q-11 0 -18.5 -5t-10.5 -16t-5 -21t-0.5 -26.5t2.5 -26t3.5 -26.5t3.5 -22l166 -1182l698 1325h-127v31h293v-31h-120l-723 -1368h96v-35h-385v35h129l-174 1233q-1 4 -2 16.5t-2 19t-3.5 19t-4.5 20.5t-5.5 18.5t-8 17t-10.5 12.5t-13.5 9 t-16.5 3h-55z" />
<glyph unicode="W" horiz-adv-x="2181" d="M82 1403v31h356v-31h-63q-11 0 -18.5 -5t-10.5 -16t-5 -21t-0.5 -26.5t2.5 -26t3.5 -26.5t3.5 -22l166 -1182l598 1132l-8 58q-1 4 -2 16.5t-2 19t-3.5 19t-4.5 20.5t-5.5 18.5t-8 17t-10.5 12.5t-13.5 9t-16.5 3h-55v31h350v-31h-61q-14 0 -22 -10.5t-8.5 -29.5t0.5 -35 t4.5 -39t4.5 -29l166 -1182l699 1325h-127v31h293v-31h-121l-723 -1368h96v-35h-385v35h129l-158 1110l-585 -1110h96v-35h-385v35h129l-174 1233q-1 4 -2 16.5t-2 19t-3.5 19t-4.5 20.5t-5.5 18.5t-8 17t-10.5 12.5t-13.5 9t-16.5 3h-55z" />
<glyph unicode="X" horiz-adv-x="1464" d="M-31 0v33h140l565 637l-316 647q-1 1 -6.5 13t-7.5 16.5t-8.5 15t-11.5 15.5t-13 12t-17 10t-20 4h-53v31h375v-31h-55q-21 0 -27.5 -17t-2.5 -35.5t11 -35.5l260 -539l529 627h-142v31h326v-31h-133l-561 -664l317 -624q25 -51 42.5 -66.5t62.5 -15.5h30v-33h-381v33h50 q37 0 40.5 21t-12.5 46l-256 531l-532 -598h133v-33h-326z" />
<glyph unicode="Y" horiz-adv-x="1271" d="M72 1403v31h368v-31h-63q-9 0 -15 -2t-9.5 -5.5t-5.5 -7.5t-2 -11t0.5 -12t3 -13.5t4.5 -13t5 -13t4 -12.5l240 -701l582 791h-129v31h299v-31h-123l-615 -832l-81 -462q0 -2 -2 -12.5t-2.5 -14.5t-1 -13.5t1.5 -14t5 -10.5t9 -8.5t14 -2.5h62v-33h-365v33h61q26 0 43 25 t21 51l82 471l-248 700q-1 4 -7 22.5t-9.5 28t-11 25.5t-14 24.5t-17 15.5t-21.5 7h-63z" />
<glyph unicode="Z" horiz-adv-x="1257" d="M72 0v35l1122 1368h-612q-58 0 -78 -12q-20 -13 -25 -39v-131q0 -41 -25.5 -55t-53 -6t-33.5 24q-19 35 -21 78v15q0 35 10 67q12 38 42.5 64t74.5 26h887v-37l-1110 -1362h706q37 1 54 16t22 47v142q18 52 56 61q6 1 12 1q32 0 59 -42q12 -25 12 -56q1 -11 -1 -22 q-6 -45 -22 -85.5t-46 -68.5q-29 -28 -60 -28h-2h-968z" />
<glyph unicode="[" horiz-adv-x="509" d="M63 -214q1 21 5 48l276 1567q15 90 55.5 113.5t161.5 21.5v-35h-117l-313 -1780h111v-32q-100 0 -127 9q-53 16 -52 88z" />
<glyph unicode="\" horiz-adv-x="649" d="M61 1536h43l504 -1573h-43z" />
<glyph unicode="]" horiz-adv-x="512" d="M-51 -279h121l313 1780h-117v35q99 0 126 -8q59 -16 57 -90q-1 -20 -5 -45l-274 -1565q-15 -90 -58.5 -115.5t-162.5 -23.5v32z" />
<glyph unicode="_" horiz-adv-x="1179" d="M31 -59h1118v-47h-1118v47z" />
<glyph unicode="a" horiz-adv-x="983" d="M82 414q0 97 34 201.5t93 193t147.5 146t186.5 57.5q128 0 229 -119l45 100h105l-131 -780q-8 -66 -8 -97q1 -8 1 -12q2 -26 21 -32q16 -4 31.5 7t23 21.5t12.5 20.5l46 86l24 -27q-31 -95 -74 -143.5t-108 -48.5q-50 0 -75.5 23t-47.5 77q-47 -54 -105 -79 q-54 -23 -102 -23h-8q-71 2 -129.5 27.5t-97 66.5t-64.5 96t-37.5 114.5t-11.5 123.5zM213 412v-22q0 -48 7 -98q9 -62 31.5 -122.5t67.5 -98.5t107 -38q23 0 44 3.5t37 8.5t33 14.5t27 15.5t23.5 18.5t18.5 17.5t16 17t12 13l125 707q-70 94 -170 94q-69 0 -130 -33 t-104.5 -86.5t-75.5 -123t-49 -142.5t-20 -145z" />
<glyph unicode="b" horiz-adv-x="925" d="M72 252q0 37 85 558q65 393 113 689h-106v37h39q23 1 34 1t31 -0.5t30 -2t26 -4.5t23.5 -8t18 -11.5t14.5 -16t8 -22t4 -28.5t-5 -35l-78 -494q87 97 205 97q94 0 164.5 -43t109.5 -117t55 -166q10 -59 11 -123q0 -36 -4 -74q-7 -92 -42 -174t-87 -141.5t-116 -103 t-132 -65.5t-133 -23h-7q-113 0 -185 67q-76 69 -76 203zM190 201q-4 -26 -4 -47q0 -117 123 -117q105 0 193.5 63.5t141.5 161.5q52 100 74 220q11 62 11 122q0 56 -10 111q-20 105 -85 170t-145 67q-118 0 -194 -110z" />
<glyph unicode="c" horiz-adv-x="927" d="M68 301q-5 34 -4 72q0 50 8 106q17 109 58 199t94 149.5t119 101t131.5 60.5t131.5 21h11q76 0 142 -25q71 -27 120 -91t49 -153q0 -33 -14 -56t-34 -29t-40 -1.5t-34 28t-13 58.5v15q0 186 -125 213q-19 4 -39 4q-67 0 -145 -49q-100 -64 -175 -181q-69 -107 -93 -253 q-10 -64 -10 -122q0 -75 17 -139q17 -67 79 -120.5t122 -55.5h11q204 0 380 209l29 -29q-92 -133 -196 -193q-101 -58 -226 -58h-8q-62 1 -119 21t-104.5 60t-79 99.5t-43.5 138.5z" />
<glyph unicode="d" horiz-adv-x="1015" d="M63 403v12q0 95 30 193q32 106 89 196t146.5 148t193.5 58q138 0 236 -121l121 610h-107v37q17 -1 38.5 -1h36t33 -1t30.5 -3t25 -5.5t21 -9.5t16 -15t10 -21q3 -15 3 -34q0 -16 -4 -35l-207 -1194q-10 -56 -10.5 -87.5t4 -42t14.5 -13.5q21 -8 40.5 8.5t27.5 32.5l51 94 l25 -27q-32 -98 -73 -148t-105 -50q-45 0 -73 27t-46 81q-83 -106 -223 -106h-5q-60 0 -116 25q-59 26 -108.5 76t-81 132t-32.5 184zM197 387q0 -57 11.5 -115.5t35 -114t67 -90t101.5 -34.5q26 0 49 4t42.5 13t34.5 17t30 21.5t22 20.5t19 20.5t14 15.5l125 707 q-68 94 -173 94q-90 0 -164.5 -53.5t-119.5 -138t-69.5 -180t-24.5 -187.5z" />
<glyph unicode="e" horiz-adv-x="960" d="M72 479q17 109 58 199t94 150t119 102t131.5 61t131.5 21h16q52 0 98 -11q54 -13 101.5 -40.5t76.5 -77.5t30 -117v-8q0 -76 -38 -130q-40 -58 -104 -83.5t-142 -41.5q-70 -14 -138 -14h-17q-38 1 -73 1t-67 -1h-52h-86q-13 -61 -15 -123v-17q0 -53 10 -103 q12 -58 39 -103.5t74.5 -72.5t110.5 -27q108 0 201 53t184 162l29 -29q-85 -124 -170 -175t-203 -70q-38 -6 -74 -6q-155 0 -248 114q-86 106 -86 271q0 55 9 116zM217 524h80q124 0 211 11.5t154 38.5t100 76.5t33 121.5q0 102 -44 152.5t-116 50.5q-58 0 -123 -32.5 t-124 -89.5t-106 -143.5t-65 -185.5z" />
<glyph unicode="f" horiz-adv-x="690" d="M-246 -287q0 32 20 68.5t58 36.5q16 0 27 -4t17 -12t9.5 -15t3 -20t-0.5 -19.5t-2.5 -19.5t-2.5 -15q-3 -30 -3 -55q0 -131 87 -131q20 0 38 9.5t32.5 29.5t27 41t23.5 54t18.5 59t16 65t13 62t11 60.5t9.5 51.5l186 1010h-211v35h217q13 73 27 131t35 122.5t48 111.5 t62.5 86.5t83.5 60t105 20.5q50 0 86 -17.5t54.5 -46.5t27 -61t8.5 -68q0 -44 -19.5 -74t-54.5 -30q-19 0 -37.5 17.5t-13.5 48.5q6 31 8.5 50t4.5 45t-1 42t-10 31.5t-21.5 22.5t-35.5 7q-47 0 -87.5 -46t-68 -123.5t-45.5 -159t-29 -170.5h211v-35h-217l-176 -1010 q-36 -214 -131.5 -339.5t-196.5 -125.5q-38 0 -73.5 12.5t-67 38t-50.5 69t-20 99.5z" />
<glyph unicode="g" horiz-adv-x="1019" d="M0 -246q0 32 20 68.5t58 36.5q16 0 27 -4t17 -12t9.5 -15t3 -20t-0.5 -19.5t-2.5 -19.5t-2.5 -15q-2 -16 -2 -32q0 -29 9 -55q13 -39 38 -62.5t57.5 -39t61 -21.5t51.5 -5q65 2 116 28.5t81 68.5t46.5 82.5t24.5 84.5l50 287q-80 -102 -216 -102h-5q-58 0 -115 24 q-59 25 -109 73.5t-81 128.5t-32 179q0 101 31 207.5t86.5 199t144.5 151.5t195 59q138 0 238 -127l45 104h104l-166 -989q-40 -231 -156.5 -362.5t-281.5 -131.5q-84 0 -163 32.5t-130 91t-51 126.5zM236 383q0 -56 12 -113.5t36 -112t68 -88.5t101 -34q74 0 130 32t85 78 l120 695q-74 102 -170 102q-89 0 -163.5 -51.5t-121 -133.5t-72 -179.5t-25.5 -194.5z" />
<glyph unicode="h" horiz-adv-x="1077" d="M-20 0v31h67q46 0 57 78l238 1390h-106v37q22 -1 65 -1q23 0 34.5 -0.5t31.5 -1.5t29.5 -3t24.5 -6t21.5 -10t14.5 -15.5t10.5 -21.5t2.5 -28t-3 -36l-111 -592q43 60 103.5 103.5t122.5 63.5q63 18 127 22q10 1 19 1q53 0 99 -17q54 -20 93 -55t55 -94q9 -31 8 -67 q0 -31 -6 -65l-92 -506q-7 -42 -9.5 -71t-0.5 -44t6.5 -21t11.5 -8q21 -5 41 10.5t27 30.5l51 95l24 -27q-31 -96 -72 -143t-106 -47q-51 0 -80.5 36t-31.5 85q-1 13 -1 26q0 36 5 74l96 510q8 43 8 78q0 109 -76 149q-37 20 -85 20q-55 0 -122 -27q-124 -49 -203 -151 q-9 -11 -16 -22l-114 -651q-7 -22 -5 -50t27 -28h53v-31h-333z" />
<glyph unicode="i" horiz-adv-x="495" d="M104 114q2 -50 30 -88t79 -38q64 0 105.5 49.5t72.5 146.5l-24 27l-52 -94q-8 -16 -27 -32.5t-40 -8.5q-10 3 -14.5 13.5t-4 42t10.5 87.5l118 682q3 19 3 34q0 69 -60 69h-158v-37h95l-129 -752q-5 -41 -5 -81v-20zM256 1227q0 34 22 57t56 23t57 -23t23 -57t-23 -57 t-57 -23t-56 23t-22 57z" />
<glyph unicode="j" horiz-adv-x="653" d="M-205 -276q1 -74 34.5 -125.5t79.5 -73t97 -21.5q101 0 195.5 125.5t132.5 339.5l153 932q3 19 3 34q0 69 -60 69h-158v-37h95l-170 -998q-33 -187 -53 -255q-53 -177 -136 -177q-87 0 -87 132q0 25 3 55q0 2 2.5 15t2.5 19.5t0.5 19t-3 19.5t-9.5 15t-17 12t-27 4 q-38 0 -58 -36t-20 -68zM375 1227q0 34 22 57t56 23t56.5 -23t22.5 -57t-22.5 -57t-56.5 -23t-56 23t-22 57z" />
<glyph unicode="k" horiz-adv-x="1015" d="M-20 0v33h69q40 0 57 80l246 1386h-106v37q16 -1 48 -2q21 0 31 -0.5t28.5 -1.5t28 -3t24 -5t21.5 -7.5t17 -11t14 -15.5t7.5 -20.5t3 -26t-3.5 -32.5l-139 -770q54 151 169.5 260t256.5 109q76 0 130 -37.5t58 -106.5v-15q0 -55 -26 -102q-30 -53 -90 -95t-128.5 -73.5 t-165.5 -64.5q51 12 95 11q94 0 153 -53q64 -58 65 -177q0 -42 -9 -92q-9 -56 -10 -87.5t3.5 -42.5t14.5 -14q21 -8 40 8.5t27 32.5l52 95l24 -27q-31 -95 -72 -141.5t-106 -46.5q-51 0 -79 36t-29 84v12q0 43 6 87q9 49 9 89q0 3 1 6q-1 36 -7 62q-6 28 -19.5 50.5 t-30.5 36t-40.5 21.5t-47 11t-52 1.5t-53 -4.5t-53.5 -9v63q186 41 297 117q48 35 76 77.5t30 79.5v9q-1 32 -13 58q-14 30 -50 44q-24 9 -53 9q-15 0 -31 -2q-71 -10 -138 -62.5t-115.5 -127.5t-81.5 -158.5t-46 -161.5l-49 -297q-8 -22 -6.5 -51t26.5 -29h51v-33h-329z " />
<glyph unicode="l" horiz-adv-x="563" d="M124 106v19q0 39 5 80l233 1294h-106v37q18 -1 53 -1h30.5t28.5 -0.5t27.5 -2.5t24 -4.5t21.5 -7.5t16.5 -11.5t13.5 -16.5q3 -8 7 -20q3 -9 3 -21v-7q-1 -16 -4 -33l-217 -1202q-10 -56 -11 -87.5t4 -42t15 -13.5q21 -8 40.5 8t27.5 32l51 95l25 -27 q-31 -95 -72.5 -141.5t-106.5 -46.5q-51 0 -79 36t-30 84z" />
<glyph unicode="m" horiz-adv-x="1720" d="M10 0v33h70q8 0 14.5 2.5t11 8.5t8 11t6 14.5t4 15t3 15.5t2.5 13q24 133 74 409.5t80 444.5h-107v34h46h44t38.5 -1.5t35 -5.5t26.5 -11t21 -18.5t11 -27.5t3.5 -39t-8.5 -52q43 58 108.5 100t137.5 57q47 10 93 10q24 0 48 -3q70 -8 129 -52.5t90 -119.5q45 60 106 101 t123 57q61 16 122 16h4q63 0 116 -22.5t92 -57t56 -88.5q10 -32 10 -68q0 -23 -4 -47l-96 -524q-7 -42 -9.5 -71t-0.5 -44t6.5 -21t11.5 -8q21 -5 41 10.5t27 30.5l51 95l24 -27q-31 -97 -72.5 -146t-105.5 -49q-51 0 -80 37.5t-31 87.5q-1 15 -1 29q0 36 4 72l100 528 q7 38 7 70q0 101 -72 145q-43 26 -99 26q-46 0 -100 -18q-124 -40 -204 -142q-11 -14 -21 -30l-134 -780h-118l125 731q5 32 5 61q0 99 -65 146q-48 35 -111 35q-46 0 -101 -19q-128 -45 -220 -172l-125 -669q-5 -24 -5 -41q0 -39 28 -39h51v-33h-324z" />
<glyph unicode="n" horiz-adv-x="1103" d="M10 0v33h70q17 0 28.5 14t15.5 27t8 34q1 3 1 5l146 854h-107v34h40.5h41.5t38 -1.5t36 -5.5t29.5 -11t24 -18.5t14 -27.5t5.5 -39t-6 -52q127 164 317 164h7q139 -2 225 -77q67 -59 67 -148q0 -25 -5 -52l-95 -524q-10 -56 -10.5 -88t4.5 -42.5t15 -12.5q21 -5 40.5 10 t26.5 30l51 95l25 -27q-31 -96 -72 -143t-106 -47q-51 0 -80 36t-32 85q-1 16 -1 33q0 33 4 67l98 528q7 37 7 67q-1 68 -35 108q-50 56 -148 57q-90 0 -170.5 -48t-142.5 -133l-123 -671q-5 -24 -5 -41q0 -39 28 -39h51v-33h-326z" />
<glyph unicode="o" horiz-adv-x="1026" d="M88 296q-6 37 -5 77q0 52 9 112q18 119 60.5 212.5t96 151t120.5 95t129.5 52t126.5 14.5q49 0 95 -10.5t92.5 -34.5t81 -63.5t60.5 -97.5q25 -60 29 -138q1 -17 1 -36q0 -65 -11 -145q-80 -503 -531 -503q-60 0 -116.5 18t-107 56t-83.5 98t-47 142zM240 240 q17 -93 71 -157.5t140 -64.5q69 0 132 35.5t103 87.5q146 193 158 539v11q0 33 -5 67q-6 40 -22 80.5t-41 71.5q-25 30 -66 48q-35 15 -77 15h-15q-163 -6 -284 -217q-65 -113 -90 -256q-14 -78 -13 -148q-1 -59 9 -112z" />
<glyph unicode="p" horiz-adv-x="995" d="M-82 -477h62q14 0 23.5 7.5t14.5 22.5t7 24t4 26q44 248 119.5 688.5t117.5 675.5h-106v34q15 0 42.5 -0.5t41 -1t36 -2t33.5 -4t27.5 -6.5t24 -10.5t16 -15.5t11.5 -21.5t3 -28.5q37 46 89 71t107 26h3q53 0 108 -20q57 -21 102.5 -65.5t79.5 -110t44 -154.5 q5 -37 5 -77q0 -57 -9 -122q-13 -88 -52.5 -169t-94.5 -142.5t-123.5 -102t-138.5 -53.5q-26 -5 -53 -5q-44 0 -89 13q-72 22 -131 80l-82 -477q-7 -22 -5 -51t27 -29h54v-35h-318v35zM256 123q51 -56 118 -71q32 -8 62 -8q35 0 69 10q63 18 118 61q105 79 157 257 q35 116 35 230q0 61 -10 121q-14 88 -62 148t-109 79q-25 8 -52 8q-37 0 -77 -16q-69 -26 -122 -100z" />
<glyph unicode="q" horiz-adv-x="972" d="M84 338q-2 26 -2 53q0 100 31 225q44 165 170 280q124 114 252 114h4q149 0 233 -117l45 96h105l-242 -1386q-7 -22 -3.5 -51t28.5 -29h59v-35h-322v35h70q9 0 16.5 4.5t11.5 9.5t7 15.5t4 16.5t2.5 18.5t1.5 15.5l84 493q-81 -104 -223 -104h-4q-75 0 -142 36 q-70 38 -122.5 115.5t-63.5 194.5zM214 356q1 -51 9 -94q18 -87 71.5 -156t135.5 -69q73 0 129 33t86 80l121 700q-72 93 -164 96h-6q-55 0 -103 -18q-51 -19 -90 -54t-71 -81.5t-54 -101t-37 -112t-21 -114.5q-6 -53 -6 -101v-8z" />
<glyph unicode="r" horiz-adv-x="854" d="M31 0v33h67q14 0 23.5 7.5t14.5 22.5t7 24t4 26l148 854h-98v37q77 0 120.5 -8t66 -26.5t24.5 -49.5q1 -10 1 -22q0 -24 -3 -54q29 35 49 56.5t56.5 51.5t81 45t95.5 15q100 0 154 -56q42 -44 42 -110q0 -18 -3 -39q-6 -33 -28.5 -51.5t-49.5 -18.5q-54 0 -54 57 q0 13 3 29q4 23 4 42q0 71 -57 86q-14 4 -30 4q-58 0 -135 -50q-89 -57 -145 -147l-115 -645q-5 -24 -5 -41q0 -39 28 -39h65v-33h-331z" />
<glyph unicode="s" horiz-adv-x="923" d="M48 206q-6 25 -6 53q0 33 9 71q10 43 55 59q17 6 30 6q22 0 38 -15q13 -13 14 -34q0 -15 -8 -35q-22 -58 -22 -105q0 -28 8 -52q21 -64 69.5 -98.5t110.5 -37.5q11 -1 21 0q104 0 170 54q73 60 73 151q0 128 -182 236q-110 65 -158.5 126.5t-48.5 159.5q1 119 111 198 q96 69 233 68q21 0 43 -1q57 -4 103 -18t74.5 -33.5t49.5 -45t28 -51.5t9 -52v-8q0 -22 -8 -42q-17 -55 -62 -64q-9 -2 -17 -2q-27 0 -42 23q-18 25 -4 61q15 39 15 70q0 45 -30 74q-52 50 -153 55h-14q-85 0 -161 -57q-81 -61 -81 -142q0 -26 10 -48.5t22.5 -38.5 t36.5 -34.5t39.5 -28t45 -27t39.5 -23.5q205 -129 205 -296v-10q-5 -128 -107 -212q-91 -76 -232 -75q-17 0 -34 1q-40 3 -84 17t-88.5 41t-75 67.5t-44.5 94.5z" />
<glyph unicode="t" horiz-adv-x="516" d="M82 969v35q143 3 209 67t98 217h33l-51 -284h166v-35h-172l-134 -754q-10 -56 -10.5 -87.5t4.5 -42t15 -13.5q21 -8 40 8.5t27 32.5l51 94l25 -27q-31 -97 -72.5 -145.5t-105.5 -48.5q-51 0 -80 37t-31 87q-1 13 -1 26q0 37 5 75l140 758h-156z" />
<glyph unicode="u" horiz-adv-x="1048" d="M100 311l115 656h-106v37q20 -1 60 -1q20 -1 30 -1t28 -1t27 -2.5t23 -4.5t20.5 -7.5t15.5 -10.5t13 -14.5t7 -19.5t2 -25.5t-3 -31.5l-107 -611q-4 -23 -4 -44q-1 -39 13 -72q20 -50 61 -76q41 -28 96 -36q24 -4 48 -3q31 0 63 6q56 11 107.5 42.5t84.5 78.5l137 797 h125l-127 -756q-8 -45 -8 -76q0 -58 27 -67q21 -8 40 8.5t27 32.5l52 94l24 -27q-31 -97 -72.5 -145.5t-105.5 -48.5q-51 0 -85.5 37t-37.5 98q-25 -37 -74 -67t-108.5 -44.5t-123.5 -17.5h-17q-54 0 -103 16q-57 19 -99.5 54.5t-60.5 101.5q-10 36 -11 78q0 34 7 73z" />
<glyph unicode="v" horiz-adv-x="1015" d="M82 811q28 99 68 149.5t104 51.5h5q47 0 76 -34q30 -36 34 -85q2 -20 1 -40q0 -30 -3 -62l-95 -562q-4 -34 -4 -65q0 -16 1 -31q3 -45 29.5 -76t72.5 -32h2q54 0 124 45q71 46 137 123t117 177t67 208q5 37 5 73q0 71 -20 142q-10 32 -16 62.5t-6.5 65t15 58.5t46.5 31 q10 2 19 2q21 0 37 -10q24 -16 34 -45t16 -63q5 -28 5 -54q0 -6 1 -12q-2 -31 -2 -50q-11 -122 -71.5 -263.5t-143 -257t-182.5 -192.5t-184 -77q-54 0 -93.5 17t-62.5 49.5t-36 73.5q-13 42 -15 98v30q0 41 3 82q4 56 15 125l54 319q8 47 8 77v11q-2 32 -7 42t-16 14 q-21 6 -39 -10t-26 -33l-47 -97z" />
<glyph unicode="w" horiz-adv-x="1511" d="M41 811q28 99 68 149.5t104 51.5h5q47 0 76 -34q30 -36 34 -85q2 -20 1 -40q0 -30 -3 -62l-88 -502q-7 -60 -7 -118.5t29.5 -102.5t85.5 -45h4q98 1 198 105q102 106 132 251l117 604h121l-111 -610q-15 -81 -15 -144q0 -68 18 -115q34 -91 110 -91q71 0 156 69.5 t149 179.5t91 246q10 51 10 102q0 84 -28 166q-11 31 -17 62.5t-6 65.5t15.5 58.5t46.5 31.5q10 2 19 2q26 0 46 -19q26 -26 34 -67q9 -40 13 -82q2 -18 2 -34q0 -19 -3 -32q-12 -125 -61 -263.5t-119.5 -254.5t-163.5 -192t-184 -76q-107 0 -170.5 73t-71.5 179 q-60 -124 -158 -194q-78 -56 -161 -56q-22 0 -44 4q-115 20 -167 129q-34 71 -35 165q0 50 10 107l72 389q8 47 8 77v11q-2 32 -7 42t-16 14q-21 6 -39 -10t-26 -33l-47 -97z" />
<glyph unicode="x" horiz-adv-x="1075" d="M-31 0v35h103l401 442l-158 328q-26 50 -45 75.5t-29 30.5t-20 2q-34 -9 -35 -52q0 -25 13 -62l-25 -17q-38 54 -38 115q0 12 2 24q8 75 71 87q21 4 40 4q24 0 44 -6q36 -12 80.5 -61.5t95.5 -147.5l102 -222l351 392h-107v34h260v-34h-98l-385 -428l180 -334 q40 -74 58.5 -95t33.5 -16q23 6 29.5 30.5t3.5 43.5l-12 98h30q30 -77 30 -139q-1 -9 -1 -17q-4 -68 -57 -106q-35 -21 -63 -22h-2q-27 0 -55 20q-29 20 -50.5 47t-40.5 62l-182 329l-371 -405h100v-35h-254z" />
<glyph unicode="y" horiz-adv-x="1157" d="M-98 -299q14 84 90 84q26 0 39.5 -23.5t5.5 -50.5l-37 -112q-10 -32 9 -55t67 -23q98 0 207.5 116t251.5 363l-256 791q-19 53 -35 81t-25.5 34t-19.5 3q-35 -10 -35 -53q0 -25 12 -61l-24 -17q-36 53 -36 107q0 11 2 22q9 65 68 94q29 14 58 14q36 0 71 -23 q62 -43 91 -118l227 -700l426 793h-123v34h283v-34h-111l-518 -969q-85 -146 -158.5 -248.5t-122 -154t-96.5 -79t-72 -32t-59 -4.5q-90 0 -144 64q-40 49 -40 114q0 21 4 43z" />
<glyph unicode="z" horiz-adv-x="942" d="M54 28q-2 6 -1 13q-1 12 5 25q8 20 19 36.5t21 26.5l586 639q-62 -34 -112 -42q-19 -3 -35 -4q-27 0 -47 9q-33 14 -60 38.5t-48 56t-40 58.5t-43.5 46.5t-52.5 19.5q-29 0 -46.5 -31t-21.5 -63q-3 -52 -16 -67q-9 -10 -23 -13q-21 -5 -31 25q-4 13 -5 28q0 21 8 45 q31 82 103 120q48 25 99 25q27 -1 55 -7q82 -20 134 -90q19 -25 38 -44.5t46.5 -37t53 -20t55 16.5t55.5 62q10 17 28 34t29 13q26 -10 26 -35q0 -35 -51 -98l-553 -604q62 34 116 43q23 4 43 4q28 0 51 -8q40 -12 75 -35t64 -53t54.5 -56t53.5 -44.5t55 -18.5q29 0 46.5 31 t21.5 63q3 52 16 67q9 10 23 13q36 7 41 -25q1 -7 1 -16q0 -26 -13 -57q-25 -68 -81 -109q-54 -40 -124 -46q-8 -1 -17 0q-61 0 -135 35q-82 40 -155 124q-26 30 -66 35q-7 1 -14 1q-33 0 -69 -20q-44 -24 -73 -74q-12 -20 -32.5 -42.5t-30.5 -18.5q-22 8 -26 26z" />
<glyph unicode="{" horiz-adv-x="641" d="M65 -115.5q6 57.5 31.5 125t56 137t55 140t33 131.5t-14 114t-81.5 86q70 33 111.5 85.5t54 113t12.5 130.5t-6 138.5t-8 135t13 123t50 100t109.5 68t186.5 24.5l24 -33q-87 0 -145 -24t-85.5 -65t-39.5 -95.5t-11.5 -118t3.5 -129.5t1 -133t-14.5 -125.5t-48 -110 t-94.5 -84.5q60 -41 72 -114t-11.5 -154t-58.5 -170.5t-61.5 -170t-29.5 -146t46.5 -104t159.5 -38.5l-35 -32q-111 0 -176 25t-85 69t-14 101.5z" />
<glyph unicode="|" horiz-adv-x="206" d="M82 -514v2050h43v-2050h-43z" />
<glyph unicode="}" horiz-adv-x="641" d="M-51 -279q87 0 145 24t85.5 65t39.5 95.5t11.5 118t-3.5 129.5t-1 133t14.5 125.5t48 110t94.5 84.5q-60 41 -72 114t11.5 154t58.5 170.5t61.5 170t29.5 146t-46.5 104t-159.5 38.5l35 33q111 0 176 -25t85 -69t14 -101.5t-31.5 -125t-56 -137t-55 -140.5t-33 -132 t14 -114t81.5 -86q-70 -33 -111.5 -85.5t-54 -113t-12.5 -130t6 -138t8 -135t-13 -123.5t-50 -100t-109.5 -67.5t-186.5 -24.5z" />
<glyph unicode="&#xa3;" horiz-adv-x="1226" d="M74 68q8 27 35 69t63 82.5t75.5 95.5t72 108t53 120t18.5 133h-192v33h192q-5 72 -1 151t14.5 151t42.5 148.5t83 143.5q107 142 347 139q136 -2 222 -88t58 -221q-9 -43 -31.5 -72t-48.5 -29q-38 0 -57.5 25.5t-7.5 60.5q17 45 18 94.5t-14 92.5t-55.5 69.5t-100.5 22.5 q-67 -4 -120.5 -37t-86 -83.5t-57.5 -114.5t-35 -129.5t-17.5 -129t-5.5 -113t1 -81.5h202v-33h-204q-4 -30 -9.5 -58t-17 -57.5t-18.5 -49t-25.5 -49.5t-25 -42.5t-30.5 -45t-29 -39.5t-33.5 -43.5t-31.5 -39.5q46 16 86 22.5t71 6.5t62 -12.5t52.5 -25t50.5 -40.5 t48 -49.5t52 -61.5q21 -26 59.5 -38t80.5 -8t82.5 30.5t62.5 73.5q1 3 7 17.5t9.5 22t11 21.5t13.5 22t16 17t19 12t21.5 2.5t25.5 -6.5q30 -15 -5.5 -71.5t-102 -113.5t-117.5 -75q-147 -55 -258.5 -26t-204.5 155q-45 64 -110.5 64.5t-139.5 -58.5q-31 -23 -53.5 -62.5 t-36.5 -56t-37 -2.5q-16 29 -8 56z" />
<glyph unicode="&#xad;" d="M102 588v53h408v-51z" />
<glyph unicode="&#x2000;" horiz-adv-x="781" />
<glyph unicode="&#x2001;" horiz-adv-x="1563" />
<glyph unicode="&#x2002;" horiz-adv-x="781" />
<glyph unicode="&#x2003;" horiz-adv-x="1563" />
<glyph unicode="&#x2004;" horiz-adv-x="521" />
<glyph unicode="&#x2005;" horiz-adv-x="390" />
<glyph unicode="&#x2006;" horiz-adv-x="260" />
<glyph unicode="&#x2007;" horiz-adv-x="260" />
<glyph unicode="&#x2008;" horiz-adv-x="195" />
<glyph unicode="&#x2009;" horiz-adv-x="312" />
<glyph unicode="&#x200a;" horiz-adv-x="86" />
<glyph unicode="&#x2010;" d="M102 588v53h408v-51z" />
<glyph unicode="&#x2011;" d="M102 588v53h408v-51z" />
<glyph unicode="&#x2012;" d="M102 588v53h408v-51z" />
<glyph unicode="&#x2013;" horiz-adv-x="1081" d="M31 592v49h1020v-49h-1020z" />
<glyph unicode="&#x2014;" horiz-adv-x="1406" d="M31 588v51h1345v-51h-1345z" />
<glyph unicode="&#x2018;" horiz-adv-x="483" d="M121 1110q-40 91 10 216q53 135 184 233q14 -14 25 -27q-54 -48 -93 -135q-46 -101 -10 -128q10 -7 27 -7q51 0 84 -34t33 -85t-33 -86t-84 -35q-104 0 -143 88z" />
<glyph unicode="&#x2019;" horiz-adv-x="688" d="M287 1028q60 49 114 138q62 102 30 128q-9 6 -23 6q-48 0 -76 43.5t-19 96.5q9 50 47 77.5t89 24.5q95 -6 125 -85q33 -89 -32 -211q-72 -138 -237 -247q-6 7 -9 10q-1 1 -2 3q-3 7 -7 16z" />
<glyph unicode="&#x201a;" horiz-adv-x="483" d="M20 -270q60 49 114 138q62 102 30 128q-9 6 -23 6q-48 0 -75.5 43t-18.5 96q9 50 47 78t88 25q95 -6 125 -85q34 -89 -31 -211q-72 -138 -237 -247q-6 8 -9 10q-2 1 -4 7z" />
<glyph unicode="&#x201c;" horiz-adv-x="913" d="M115 1105q-34 89 31 211q72 138 237 247q6 -7 9 -10q1 -1 2 -3q3 -7 7 -16q-60 -49 -113 -138q-62 -102 -30 -128q9 -6 23 -6q48 0 75.5 -43.5t18.5 -96.5q-9 -50 -46.5 -77.5t-88.5 -24.5q-95 6 -125 85zM524 1105q-33 89 32 211q72 138 237 247q6 -7 9 -10q1 -1 2 -3 q3 -7 7 -16q-60 -49 -114 -138q-62 -102 -30 -128q9 -6 23 -6q48 0 75.5 -43.5t18.5 -96.5q-9 -50 -46.5 -77.5t-88.5 -24.5q-95 6 -125 85z" />
<glyph unicode="&#x201d;" horiz-adv-x="1097" d="M287 1032q60 48 113 137q62 103 31 129q-8 7 -23 7q-48 0 -76 43t-19 96q9 50 47 77.5t89 24.5q95 -6 125 -85q33 -89 -32 -211q-73 -137 -237 -246q-6 8 -9 10q-1 1 -2 4zM696 1032q60 48 113 137q62 103 31 129q-8 7 -23 7q-48 0 -75.5 43t-18.5 96q9 50 46.5 77.5 t88.5 24.5q95 -6 125 -85q34 -89 -31 -211q-73 -137 -237 -246q-7 8 -10 10q-1 1 -5 9q-2 5 -4 9z" />
<glyph unicode="&#x201e;" horiz-adv-x="892" d="M20 -295q60 49 114 138q62 102 30 128q-9 6 -23 6q-48 0 -75.5 43.5t-18.5 96.5q9 50 46.5 77.5t88.5 24.5q95 -6 125 -85q34 -89 -31 -211q-72 -138 -237 -247q-6 8 -9 10q-2 1 -4 7zM430 -295q60 49 114 138q62 102 30 128q-9 6 -23 6q-48 0 -75.5 43.5t-18.5 96.5 q9 50 46.5 77.5t88.5 24.5q95 -6 125 -85q34 -89 -31 -211q-72 -138 -237 -247q-6 8 -9 10q-2 1 -4 7z" />
<glyph unicode="&#x2026;" horiz-adv-x="1376" d="M205 94q0 41 29.5 70t68.5 29q37 0 63.5 -29t26.5 -70t-26.5 -68.5t-63.5 -27.5q-39 0 -68.5 28t-29.5 68zM614 94q0 41 30 70t69 29q37 0 63.5 -29t26.5 -70t-26.5 -68.5t-63.5 -27.5q-39 0 -69 28t-30 68zM1026 94q0 41 29.5 70t68.5 29q37 0 63.5 -29t26.5 -70 t-26.5 -68.5t-63.5 -27.5q-39 0 -68.5 28t-29.5 68z" />
<glyph unicode="&#x202f;" horiz-adv-x="312" />
<glyph unicode="&#x205f;" horiz-adv-x="390" />
<glyph unicode="&#x20ac;" horiz-adv-x="1349" d="M102 559l23 55h266q-3 65 8 148h-297l23 57h283q30 170 115 295t214 198t290.5 103.5t352.5 18.5l-12 -205h-29l11 170q-77 2 -141 -1t-138 -16.5t-133.5 -38.5t-120 -69.5t-105 -105t-80 -149.5t-54.5 -200h366l-20 -57h-355q-10 -85 -10 -148h385l-20 -55h-363 q7 -115 41.5 -211.5t87.5 -161.5t122 -108t146 -51t160 10l12 147h31l-16 -182q-61 -11 -125.5 -12t-136 10.5t-137.5 35.5t-128 69t-108.5 106t-78 150t-38.5 198h-291z" />
<glyph unicode="&#x25fc;" horiz-adv-x="1013" d="M0 0v1014h1014v-1014h-1014z" />
</font>
</defs>
</svg>
